<?xml version="1.0" encoding="utf-8"?>
<!-- Generator: Adobe Illustrator 16.0.0, SVG Export Plug-In . SVG Version: 6.00 Build 0)  -->
<!DOCTYPE svg PUBLIC "-//W3C//DTD SVG 1.1//EN" "http://www.w3.org/Graphics/SVG/1.1/DTD/svg11.dtd">
<svg version="1.1" id="Layer_1" xmlns="http://www.w3.org/2000/svg" xmlns:xlink="http://www.w3.org/1999/xlink" x="0px" y="0px"
	 width="988.451px" height="320.984px" viewBox="0 0 988.451 320.984" style="enable-background:new 0 0 988.451 320.984;"
	 xml:space="preserve">
<style type="text/css">
<![CDATA[
	.st0{fill:#FF7F50;}
	.st1{fill:#00748E;}
]]>
</style>
<g>
	<path class="st0" d="M310.304,112.796c-12.74-39.522-40.115-71.718-77.066-90.656c-22.197-11.366-46-17.137-70.766-17.137
		c-58.679,0-111.74,32.413-138.47,84.6c-39.096,76.287-8.846,170.154,67.447,209.24c22.197,11.367,46.008,17.139,70.775,17.139
		c58.676,0,111.731-32.414,138.467-84.598C319.634,194.427,323.046,152.314,310.304,112.796z M265.083,144.695
		c2.404-10.22-0.771-18.45-11.03-18.073c-8.636,0.307-13.945,13.733-15.601,22.759c-1.635,9.047-7.988,24.179-20.785,20.383
		c-29.522-8.767-22.369-38.884-21.336-44.489c1.027-5.619,15.211-39.831,9.248-48.236c-5.949-8.399-14.858-2.643-16.754,4.766
		c-0.76,3.027-4.15,14.89-5.506,19.925c-6.064-5.313-13.729-12.475-18.32-12.387c-6.725,0.098-11.713,9.361-5.549,16.185
		c4.951,5.514,9.232,8.722,15.387,17.022c-2.614,11.073-5.137,19.537-16.121,27.844c-18.139,13.324-33.057,24.32-34.789,24.8
		c-10.495,2.874,16.197-62.346,9.57-70.508c-6.611-8.155-15.057-10.695-21.043-2.329c-5.045,7.018-36.281,50.801-33.051,44.145
		c3.996-8.294-3.387-15.774-9.865-14.001c-4.438,1.215-12.106,12.29-16.473,19.104c-2.226-3.706-4.219-7.043-5.724-9.63
		c2.166-61.697,52.834-111.061,115.054-111.061c63.242,0,114.543,50.986,115.125,114.088
		C270.312,148.433,264.081,148.914,265.083,144.695z"/>
	<g>
		<path class="st1" d="M403.141,261.082v13.961h-3.902v-33.567h9.209c4.115,0,7.158,0.787,9.125,2.364
			c1.967,1.576,2.949,3.947,2.949,7.119c0,4.438-2.25,7.438-6.75,8.998l9.117,15.086h-4.617l-8.127-13.961H403.141z M403.141,257.73
			h5.35c2.758,0,4.777-0.548,6.064-1.643c1.285-1.094,1.928-2.735,1.928-4.924c0-2.221-0.656-3.82-1.963-4.799
			c-1.309-0.98-3.41-1.472-6.303-1.472h-5.077L403.141,257.73L403.141,257.73z"/>
		<path class="st1" d="M438.364,275.501c-3.717,0-6.653-1.131-8.803-3.396c-2.152-2.266-3.229-5.411-3.229-9.438
			c0-4.055,1-7.278,2.998-9.666c1.998-2.387,4.681-3.582,8.048-3.582c3.153,0,5.647,1.037,7.483,3.113
			c1.838,2.071,2.758,4.809,2.758,8.207v2.411h-17.338c0.078,2.953,0.822,5.197,2.24,6.728c1.416,1.531,3.41,2.295,5.979,2.295
			c2.712,0,5.389-0.564,8.037-1.697v3.398c-1.346,0.58-2.623,0.998-3.821,1.25C441.516,275.376,440.063,275.501,438.364,275.501z
			 M437.331,252.61c-2.02,0-3.629,0.658-4.834,1.974c-1.198,1.318-1.907,3.14-2.123,5.467h13.158c0-2.403-0.535-4.244-1.604-5.521
			C440.854,253.25,439.323,252.61,437.331,252.61z"/>
		<path class="st1" d="M452.004,264.184v-3.49h11.274v3.49H452.004z"/>
		<path class="st1" d="M479.879,275.501c-3.718,0-6.655-1.131-8.804-3.396c-2.151-2.266-3.229-5.411-3.229-9.438
			c0-4.055,1-7.278,2.998-9.666c1.998-2.387,4.68-3.582,8.046-3.582c3.155,0,5.648,1.037,7.483,3.113
			c1.839,2.071,2.759,4.809,2.759,8.207v2.411h-17.337c0.077,2.953,0.821,5.197,2.239,6.728c1.416,1.531,3.41,2.295,5.98,2.295
			c2.711,0,5.389-0.564,8.037-1.697v3.398c-1.347,0.58-2.623,0.998-3.824,1.25C483.03,275.376,481.577,275.501,479.879,275.501z
			 M478.845,252.61c-2.021,0-3.629,0.658-4.834,1.974c-1.199,1.318-1.908,3.14-2.123,5.467h13.158c0-2.403-0.535-4.244-1.605-5.521
			C482.368,253.25,480.838,252.61,478.845,252.61z"/>
		<path class="st1" d="M512.852,275.042v-16.276c0-2.054-0.467-3.584-1.398-4.595c-0.934-1.01-2.396-1.516-4.387-1.516
			c-2.631,0-4.561,0.713-5.785,2.135c-1.227,1.424-1.838,3.773-1.838,7.049v13.203h-3.813v-25.164h3.1l0.621,3.443h0.184
			c0.781-1.24,1.875-2.201,3.283-2.882s2.979-1.022,4.707-1.022c3.031,0,5.314,0.732,6.842,2.193
			c1.531,1.463,2.297,3.801,2.297,7.016v16.416H512.852L512.852,275.042z"/>
		<path class="st1" d="M545.093,249.878v2.41l-4.664,0.551c0.428,0.537,0.813,1.236,1.149,2.102
			c0.336,0.865,0.505,1.842,0.505,2.928c0,2.467-0.843,4.434-2.527,5.902c-1.685,1.468-3.992,2.204-6.932,2.204
			c-0.75,0-1.457-0.062-2.111-0.187c-1.623,0.858-2.438,1.938-2.438,3.239c0,0.688,0.285,1.197,0.853,1.526
			c0.563,0.33,1.537,0.494,2.914,0.494h4.457c2.723,0,4.817,0.574,6.278,1.721c1.463,1.148,2.193,2.816,2.193,5.006
			c0,2.786-1.119,4.909-3.353,6.372c-2.237,1.462-5.495,2.192-9.78,2.192c-3.293,0-5.83-0.612-7.613-1.836
			c-1.785-1.226-2.676-2.955-2.676-5.189c0-1.531,0.49-2.854,1.471-3.973c0.978-1.117,2.357-1.875,4.131-2.272
			c-0.643-0.292-1.182-0.741-1.619-1.354c-0.436-0.612-0.651-1.323-0.651-2.135c0-0.918,0.242-1.723,0.733-2.414
			c0.488-0.688,1.265-1.352,2.32-1.996c-1.303-0.535-2.365-1.446-3.18-2.731c-0.82-1.286-1.23-2.756-1.23-4.407
			c0-2.757,0.826-4.88,2.48-6.373c1.651-1.492,3.996-2.238,7.026-2.238c1.314,0,2.502,0.152,3.56,0.459H545.093L545.093,249.878z
			 M525.022,279.268c0,1.362,0.574,2.396,1.725,3.101c1.146,0.705,2.791,1.057,4.935,1.057c3.199,0,5.567-0.479,7.104-1.436
			c1.541-0.957,2.312-2.254,2.312-3.892c0-1.363-0.422-2.31-1.265-2.837c-0.842-0.526-2.426-0.791-4.752-0.791h-4.567
			c-1.73,0-3.08,0.412-4.043,1.24C525.505,276.535,525.022,277.722,525.022,279.268z M527.089,257.938
			c0,1.761,0.498,3.092,1.491,3.996c0.994,0.901,2.382,1.353,4.156,1.353c3.722,0,5.58-1.806,5.58-5.418
			c0-3.779-1.881-5.67-5.646-5.67c-1.793,0-3.17,0.481-4.136,1.445C527.571,254.608,527.089,256.039,527.089,257.938z"/>
		<path class="st1" d="M549.932,243.058c0-0.871,0.215-1.512,0.643-1.916c0.429-0.406,0.967-0.609,1.611-0.609
			c0.611,0,1.137,0.207,1.58,0.62c0.445,0.414,0.668,1.048,0.668,1.905s-0.223,1.497-0.668,1.918
			c-0.443,0.423-0.969,0.631-1.58,0.631c-0.645,0-1.184-0.208-1.611-0.631C550.147,244.555,549.932,243.916,549.932,243.058z
			 M554.067,275.042h-3.813v-25.164h3.813V275.042z"/>
		<path class="st1" d="M579.37,275.042v-16.276c0-2.054-0.465-3.584-1.397-4.595c-0.934-1.01-2.396-1.516-4.388-1.516
			c-2.631,0-4.559,0.713-5.784,2.135c-1.228,1.424-1.838,3.773-1.838,7.049v13.203h-3.813v-25.164h3.102l0.621,3.443h0.183
			c0.78-1.24,1.875-2.201,3.283-2.882c1.407-0.681,2.979-1.022,4.709-1.022c3.03,0,5.313,0.732,6.84,2.193
			c1.53,1.463,2.299,3.801,2.299,7.016v16.416H579.37L579.37,275.042z"/>
		<path class="st1" d="M601.643,275.501c-3.719,0-6.656-1.131-8.805-3.396c-2.152-2.266-3.228-5.411-3.228-9.438
			c0-4.055,0.998-7.278,2.996-9.666c1.998-2.387,4.68-3.582,8.049-3.582c3.154,0,5.646,1.037,7.484,3.113
			c1.836,2.071,2.756,4.809,2.756,8.207v2.411h-17.338c0.08,2.953,0.824,5.197,2.242,6.728c1.414,1.531,3.407,2.295,5.979,2.295
			c2.709,0,5.389-0.564,8.035-1.697v3.398c-1.346,0.58-2.621,0.998-3.822,1.25C604.794,275.376,603.341,275.501,601.643,275.501z
			 M600.61,252.61c-2.021,0-3.631,0.658-4.834,1.974c-1.201,1.318-1.91,3.14-2.125,5.467h13.16c0-2.403-0.535-4.244-1.607-5.521
			C604.132,253.25,602.6,252.61,600.61,252.61z"/>
		<path class="st1" d="M628.028,275.501c-3.719,0-6.656-1.131-8.805-3.396c-2.152-2.266-3.228-5.411-3.228-9.438
			c0-4.055,0.998-7.278,2.996-9.666c1.998-2.387,4.681-3.582,8.05-3.582c3.153,0,5.646,1.037,7.483,3.113
			c1.836,2.071,2.756,4.809,2.756,8.207v2.411h-17.338c0.08,2.953,0.824,5.197,2.242,6.728c1.414,1.531,3.408,2.295,5.979,2.295
			c2.709,0,5.39-0.564,8.035-1.697v3.398c-1.346,0.58-2.621,0.998-3.822,1.25C631.178,275.376,629.725,275.501,628.028,275.501z
			 M626.995,252.61c-2.021,0-3.631,0.658-4.834,1.974c-1.2,1.318-1.909,3.14-2.125,5.467h13.16c0-2.403-0.535-4.244-1.606-5.521
			C630.516,253.25,628.985,252.61,626.995,252.61z"/>
		<path class="st1" d="M655.26,249.417c1.115,0,2.121,0.092,3.006,0.275l-0.525,3.537c-1.043-0.23-1.961-0.346-2.758-0.346
			c-2.035,0-3.775,0.828-5.223,2.482c-1.445,1.65-2.17,3.711-2.17,6.174v13.502h-3.813v-25.166h3.146l0.436,4.662h0.185
			c0.936-1.638,2.061-2.9,3.377-3.789C652.235,249.863,653.682,249.417,655.26,249.417z"/>
		<path class="st1" d="M662.653,243.058c0-0.871,0.215-1.512,0.644-1.916c0.428-0.406,0.967-0.609,1.61-0.609
			c0.611,0,1.138,0.207,1.58,0.62c0.445,0.414,0.668,1.048,0.668,1.905s-0.223,1.497-0.668,1.918
			c-0.442,0.423-0.969,0.631-1.58,0.631c-0.645,0-1.184-0.208-1.61-0.631C662.868,244.555,662.653,243.916,662.653,243.058z
			 M666.788,275.042h-3.813v-25.164h3.813V275.042z"/>
		<path class="st1" d="M692.089,275.042v-16.276c0-2.054-0.468-3.584-1.4-4.595c-0.932-1.01-2.395-1.516-4.385-1.516
			c-2.633,0-4.562,0.713-5.787,2.135c-1.225,1.424-1.836,3.773-1.836,7.049v13.203h-3.814v-25.164h3.103l0.621,3.443h0.182
			c0.783-1.24,1.875-2.201,3.285-2.882c1.408-0.681,2.977-1.022,4.707-1.022c3.03,0,5.313,0.732,6.842,2.193
			c1.531,1.463,2.297,3.801,2.297,7.016v16.416H692.089L692.089,275.042z"/>
		<path class="st1" d="M724.327,249.878v2.41l-4.662,0.551c0.429,0.537,0.813,1.236,1.148,2.102
			c0.338,0.865,0.506,1.842,0.506,2.928c0,2.467-0.842,4.434-2.526,5.902c-1.685,1.468-3.994,2.204-6.935,2.204
			c-0.75,0-1.455-0.062-2.111-0.187c-1.623,0.858-2.436,1.938-2.436,3.239c0,0.688,0.283,1.197,0.852,1.526
			c0.563,0.33,1.537,0.494,2.914,0.494h4.455c2.724,0,4.818,0.574,6.281,1.721c1.463,1.148,2.193,2.816,2.193,5.006
			c0,2.786-1.119,4.909-3.354,6.372c-2.235,1.462-5.496,2.192-9.781,2.192c-3.293,0-5.829-0.612-7.612-1.836
			c-1.783-1.226-2.676-2.955-2.676-5.189c0-1.531,0.491-2.854,1.473-3.973c0.977-1.117,2.356-1.875,4.131-2.272
			c-0.643-0.292-1.182-0.741-1.619-1.354c-0.436-0.612-0.652-1.323-0.652-2.135c0-0.918,0.242-1.723,0.734-2.414
			c0.488-0.688,1.264-1.352,2.318-1.996c-1.301-0.535-2.363-1.446-3.181-2.731c-0.817-1.286-1.229-2.756-1.229-4.407
			c0-2.757,0.826-4.88,2.479-6.373c1.65-1.492,3.996-2.238,7.027-2.238c1.313,0,2.502,0.152,3.557,0.459H724.327L724.327,249.878z
			 M704.259,279.268c0,1.362,0.571,2.396,1.723,3.101c1.146,0.705,2.793,1.057,4.936,1.057c3.197,0,5.568-0.479,7.105-1.436
			c1.541-0.957,2.311-2.254,2.311-3.892c0-1.363-0.424-2.31-1.264-2.837c-0.842-0.526-2.428-0.791-4.752-0.791h-4.57
			c-1.729,0-3.078,0.412-4.043,1.24C704.741,276.535,704.259,277.722,704.259,279.268z M706.325,257.938
			c0,1.761,0.498,3.092,1.49,3.996c0.996,0.901,2.383,1.353,4.156,1.353c3.723,0,5.582-1.806,5.582-5.418
			c0-3.779-1.883-5.67-5.648-5.67c-1.793,0-3.17,0.481-4.133,1.445C706.807,254.608,706.325,256.039,706.325,257.938z"/>
		<path class="st1" d="M767.772,275.042h-3.904v-15.797h-17.68v15.797h-3.902v-33.567h3.902v14.28h17.68v-14.28h3.904V275.042z"/>
		<path class="st1" d="M780.882,261.082v13.961h-3.9v-33.567h9.207c4.115,0,7.16,0.787,9.127,2.364
			c1.965,1.576,2.949,3.947,2.949,7.119c0,4.438-2.25,7.438-6.75,8.998l9.115,15.086h-4.615l-8.127-13.961H780.882z M780.882,257.73
			h5.352c2.756,0,4.777-0.548,6.063-1.643c1.284-1.094,1.928-2.735,1.928-4.924c0-2.221-0.654-3.82-1.963-4.799
			c-1.308-0.98-3.41-1.472-6.304-1.472h-5.075L780.882,257.73L780.882,257.73z"/>
		<path class="st1" d="M829.401,275.501c-1.639,0-3.137-0.301-4.49-0.905c-1.354-0.604-2.489-1.534-3.409-2.79h-0.273
			c0.182,1.47,0.273,2.861,0.273,4.18v10.355h-3.813v-36.463h3.1l0.529,3.443h0.185c0.979-1.378,2.12-2.373,3.422-2.984
			c1.301-0.611,2.793-0.92,4.479-0.92c3.336,0,5.91,1.142,7.728,3.422c1.811,2.281,2.719,5.48,2.719,9.599
			c0,4.133-0.924,7.345-2.766,9.633C835.237,274.358,832.675,275.501,829.401,275.501z M828.848,252.656
			c-2.57,0-4.435,0.713-5.58,2.135c-1.146,1.424-1.736,3.689-1.768,6.797v0.851c0,3.537,0.59,6.065,1.768,7.59
			c1.178,1.522,3.068,2.284,5.672,2.284c2.174,0,3.877-0.881,5.107-2.641c1.231-1.76,1.852-4.188,1.852-7.279
			c0-3.137-0.619-5.544-1.852-7.221C832.817,253.494,831.083,252.656,828.848,252.656z"/>
		<path class="st1" d="M857.987,249.417c1.117,0,2.121,0.092,3.008,0.275l-0.526,3.537c-1.043-0.23-1.959-0.346-2.756-0.346
			c-2.037,0-3.775,0.828-5.224,2.482c-1.444,1.65-2.172,3.711-2.172,6.174v13.502h-3.813v-25.166h3.147l0.437,4.662h0.182
			c0.936-1.638,2.061-2.9,3.379-3.789C854.964,249.863,856.409,249.417,857.987,249.417z"/>
		<path class="st1" d="M887.427,262.438c0,4.103-1.033,7.306-3.103,9.608c-2.065,2.306-4.922,3.455-8.563,3.455
			c-2.25,0-4.248-0.526-5.994-1.584c-1.744-1.055-3.09-2.569-4.039-4.547c-0.951-1.973-1.424-4.285-1.424-6.934
			c0-4.102,1.022-7.299,3.074-9.586c2.053-2.287,4.899-3.434,8.543-3.434c3.521,0,6.317,1.17,8.393,3.514
			C886.385,255.273,887.427,258.441,887.427,262.438z M868.251,262.438c0,3.216,0.643,5.664,1.93,7.349
			c1.285,1.685,3.176,2.525,5.672,2.525s4.389-0.839,5.684-2.516c1.293-1.676,1.939-4.131,1.939-7.358
			c0-3.199-0.646-5.628-1.939-7.291c-1.295-1.66-3.203-2.49-5.729-2.49c-2.496,0-4.379,0.819-5.65,2.457
			C868.887,256.75,868.251,259.193,868.251,262.438z"/>
		<path class="st1" d="M904.163,275.501c-3.643,0-6.463-1.119-8.461-3.362c-1.998-2.242-2.998-5.414-2.998-9.519
			c0-4.209,1.017-7.461,3.041-9.758c2.029-2.297,4.92-3.445,8.67-3.445c1.209,0,2.421,0.131,3.628,0.392
			c1.209,0.26,2.157,0.565,2.848,0.919l-1.172,3.236c-0.842-0.336-1.758-0.614-2.754-0.838c-0.996-0.221-1.875-0.334-2.642-0.334
			c-5.114,0-7.67,3.263-7.67,9.783c0,3.09,0.623,5.463,1.871,7.117s3.098,2.479,5.547,2.479c2.097,0,4.248-0.449,6.451-1.354v3.375
			C908.839,275.067,906.718,275.501,904.163,275.501z"/>
		<path class="st1" d="M927.126,275.501c-3.72,0-6.656-1.131-8.806-3.396c-2.151-2.266-3.227-5.411-3.227-9.438
			c0-4.055,0.998-7.278,2.996-9.666c1.998-2.387,4.68-3.582,8.049-3.582c3.153,0,5.646,1.037,7.481,3.113
			c1.838,2.071,2.759,4.809,2.759,8.207v2.411H919.04c0.078,2.953,0.822,5.197,2.24,6.728c1.416,1.531,3.41,2.295,5.982,2.295
			c2.709,0,5.387-0.564,8.035-1.697v3.398c-1.347,0.58-2.623,0.998-3.822,1.25S928.823,275.501,927.126,275.501z M926.091,252.61
			c-2.021,0-3.629,0.658-4.834,1.974c-1.199,1.318-1.908,3.14-2.123,5.467h13.16c0-2.403-0.537-4.244-1.607-5.521
			C929.614,253.25,928.083,252.61,926.091,252.61z"/>
		<path class="st1" d="M959.11,268.18c0,2.34-0.873,4.147-2.619,5.418c-1.742,1.271-4.194,1.903-7.346,1.903
			c-3.338,0-5.939-0.526-7.809-1.584v-3.535c1.211,0.611,2.508,1.095,3.893,1.447s2.723,0.527,4.008,0.527
			c1.988,0,3.521-0.318,4.59-0.953c1.072-0.636,1.607-1.604,1.607-2.904c0-0.979-0.424-1.817-1.271-2.515
			c-0.852-0.696-2.51-1.519-4.973-2.468c-2.342-0.874-4.006-1.635-4.996-2.285c-0.986-0.652-1.721-1.391-2.201-2.215
			c-0.481-0.828-0.727-1.814-0.727-2.963c0-2.053,0.836-3.67,2.506-4.855c1.668-1.188,3.955-1.781,6.863-1.781
			c2.711,0,5.36,0.553,7.946,1.653l-1.354,3.101c-2.527-1.041-4.814-1.562-6.865-1.562c-1.807,0-3.17,0.283-4.088,0.851
			c-0.92,0.566-1.377,1.347-1.377,2.342c0,0.674,0.17,1.248,0.518,1.723c0.345,0.475,0.898,0.928,1.664,1.354
			c0.767,0.43,2.232,1.051,4.408,1.86c2.984,1.089,5,2.183,6.049,3.284C958.587,265.123,959.11,266.509,959.11,268.18z"/>
		<path class="st1" d="M981.542,268.18c0,2.34-0.872,4.147-2.616,5.418s-4.195,1.903-7.347,1.903c-3.338,0-5.938-0.526-7.809-1.584
			v-3.535c1.209,0.611,2.508,1.095,3.891,1.447c1.388,0.353,2.724,0.527,4.011,0.527c1.987,0,3.52-0.318,4.59-0.953
			c1.071-0.636,1.606-1.604,1.606-2.904c0-0.979-0.426-1.817-1.272-2.515c-0.851-0.696-2.508-1.519-4.974-2.468
			c-2.34-0.874-4.004-1.635-4.994-2.285c-0.985-0.652-1.721-1.391-2.202-2.215c-0.48-0.828-0.726-1.814-0.726-2.963
			c0-2.053,0.836-3.67,2.506-4.855c1.666-1.188,3.955-1.781,6.863-1.781c2.709,0,5.359,0.553,7.947,1.653l-1.355,3.101
			c-2.526-1.041-4.813-1.562-6.864-1.562c-1.808,0-3.173,0.283-4.089,0.851c-0.92,0.566-1.377,1.347-1.377,2.342
			c0,0.674,0.17,1.248,0.519,1.723c0.342,0.475,0.896,0.928,1.662,1.354c0.766,0.43,2.233,1.051,4.409,1.86
			c2.982,1.089,5,2.183,6.05,3.284C981.02,265.123,981.542,266.509,981.542,268.18z"/>
	</g>
	<g>
		<path class="st0" d="M478.362,199.882c-10.899,10.891-25.381,16.345-39.703,16.345c-36.735,0-55.895-25.69-56.047-55.11
			c-0.318-29.118,18.685-56.359,56.047-56.359c14.322,0,28.804,5.448,39.703,16.349l-5.762,4.981
			c-9.342-9.337-21.644-13.855-33.941-13.855c-31.764,0-48.111,22.418-47.953,48.569c0.31,25.534,16.502,47.643,47.953,47.643
			c12.299,0,24.754-4.67,34.09-13.85L478.362,199.882z"/>
		<path class="st0" d="M491.432,176.686c0-24.443,17.44-40.014,39.088-40.014c21.633,0,39.076,15.57,39.076,40.014
			c0,24.438-17.443,39.384-39.076,39.384C508.874,216.069,491.432,201.123,491.432,176.686z M562.12,176.686
			c0-19.931-14.174-32.854-31.6-32.854c-17.439,0-31.609,12.924-31.609,32.854c0,19.926,14.17,31.916,31.609,31.916
			C547.946,208.602,562.12,196.611,562.12,176.686z"/>
		<path class="st0" d="M594.346,138.074l0.313,13.698c4.828-10.434,15.728-14.48,25.527-14.48c5.77-0.15,11.369,1.4,16.502,4.52
			l-3.416,6.227c-4.055-2.492-8.57-3.58-13.086-3.58c-14.318,0.152-25.373,11.673-25.373,25.689v44.831h-7.627v-76.904
			L594.346,138.074L594.346,138.074z"/>
		<path class="st0" d="M722.169,138.074c0,25.689,0,51.22,0,76.904h-7.634v-16.346c-7.465,11.99-18.995,17.594-31.448,17.594
			c-21.488,0-39.078-16.188-39.078-39.695c0-23.511,17.59-39.39,39.078-39.39c12.453,0,25.067,5.761,31.448,17.741v-16.809
			L722.169,138.074L722.169,138.074z M651.645,176.531c0,19.305,14.01,32.225,31.441,32.225c42.821,0,42.821-64.297,0-64.297
			C665.655,144.458,651.645,157.221,651.645,176.531z"/>
		<path class="st0" d="M750.507,106.005v108.974h-7.636V106.005H750.507z"/>
		<path class="st0" d="M845.161,215.137v-44.06h-53.565v44.06h-20.545V106.153h20.545v45.932h53.565v-45.932h20.394v108.983
			L845.161,215.137L845.161,215.137z"/>
		<path class="st0" d="M981.542,214.979h-24.438l-31.762-36.429h-19.779v36.429H885.01V105.848c17.281,0,34.567,0.157,51.848,0.157
			c25.688,0.148,39.23,17.281,39.23,36.118c0,14.943-6.845,30.046-27.554,34.25l33.007,37.209V214.979L981.542,214.979z
			 M905.563,125.148v34.877h31.295c13.076,0,18.689-8.726,18.689-17.438c0-8.716-5.769-17.438-18.689-17.438L905.563,125.148
			L905.563,125.148z"/>
	</g>
</g>
</svg>
