<?xml version="1.0" encoding="utf-8"?>
<!-- Generator: Adobe Illustrator 16.0.0, SVG Export Plug-In . SVG Version: 6.00 Build 0)  -->
<!DOCTYPE svg PUBLIC "-//W3C//DTD SVG 1.1//EN" "http://www.w3.org/Graphics/SVG/1.1/DTD/svg11.dtd">
<svg version="1.1" id="Layer_1" xmlns="http://www.w3.org/2000/svg" xmlns:xlink="http://www.w3.org/1999/xlink" x="0px" y="0px"
	 width="988.451px" height="320.984px" viewBox="0 0 988.451 320.984" enable-background="new 0 0 988.451 320.984"
	 xml:space="preserve">
<g>
	<path fill="none" stroke="#FF780A" stroke-width="3" stroke-miterlimit="10" d="M310.304,112.796
		c-12.74-39.521-40.115-71.718-77.066-90.655c-22.197-11.366-46-17.138-70.766-17.138c-58.68,0-111.74,32.413-138.471,84.601
		c-39.096,76.287-8.846,170.153,67.447,209.239c22.197,11.367,46.008,17.14,70.775,17.14c58.676,0,111.73-32.414,138.467-84.599
		C319.635,194.427,323.047,152.314,310.304,112.796z M265.083,144.695c2.404-10.22-0.771-18.45-11.029-18.073
		c-8.637,0.308-13.945,13.733-15.602,22.759c-1.635,9.047-7.988,24.18-20.785,20.384c-29.521-8.768-22.369-38.885-21.336-44.489
		c1.027-5.619,15.211-39.831,9.248-48.236c-5.949-8.398-14.857-2.643-16.754,4.767c-0.76,3.026-4.15,14.89-5.506,19.925
		c-6.064-5.313-13.729-12.476-18.32-12.388c-6.725,0.099-11.713,9.361-5.549,16.186c4.951,5.514,9.232,8.722,15.387,17.021
		c-2.613,11.073-5.137,19.537-16.121,27.845c-18.139,13.323-33.057,24.319-34.788,24.8c-10.495,2.874,16.196-62.346,9.569-70.508
		c-6.61-8.155-15.057-10.695-21.043-2.329c-5.045,7.018-36.281,50.801-33.051,44.145c3.996-8.294-3.387-15.773-9.865-14.001
		c-4.438,1.215-12.105,12.29-16.473,19.104c-2.227-3.706-4.219-7.043-5.725-9.63c2.166-61.697,52.834-111.062,115.055-111.062
		c63.242,0,114.543,50.986,115.125,114.088C270.312,148.433,264.081,148.914,265.083,144.695z"/>
	<g>
		<path fill="none" stroke="#FF780A" stroke-miterlimit="10" d="M403.141,261.082v13.961h-3.902v-33.566h9.209
			c4.115,0,7.158,0.787,9.125,2.363s2.949,3.947,2.949,7.119c0,4.438-2.25,7.438-6.75,8.998l9.117,15.086h-4.617l-8.127-13.961
			H403.141z M403.141,257.73h5.35c2.758,0,4.777-0.548,6.064-1.644c1.285-1.094,1.928-2.734,1.928-4.924
			c0-2.221-0.656-3.82-1.963-4.799c-1.309-0.98-3.41-1.472-6.303-1.472h-5.077L403.141,257.73L403.141,257.73z"/>
		<path fill="none" stroke="#FF780A" stroke-miterlimit="10" d="M438.364,275.501c-3.717,0-6.652-1.131-8.803-3.396
			c-2.152-2.267-3.229-5.411-3.229-9.438c0-4.055,1-7.277,2.998-9.666c1.998-2.387,4.682-3.582,8.049-3.582
			c3.152,0,5.646,1.037,7.482,3.113c1.838,2.071,2.758,4.809,2.758,8.207v2.411h-17.338c0.078,2.953,0.822,5.197,2.24,6.728
			c1.416,1.531,3.41,2.295,5.979,2.295c2.713,0,5.39-0.563,8.037-1.696v3.397c-1.346,0.58-2.623,0.998-3.82,1.25
			C441.516,275.376,440.063,275.501,438.364,275.501z M437.331,252.61c-2.02,0-3.629,0.658-4.834,1.974
			c-1.197,1.318-1.906,3.141-2.123,5.467h13.158c0-2.402-0.535-4.243-1.604-5.521C440.854,253.25,439.323,252.61,437.331,252.61z"/>
		<path fill="none" stroke="#FF780A" stroke-miterlimit="10" d="M452.005,264.184v-3.49h11.273v3.49H452.005z"/>
		<path fill="none" stroke="#FF780A" stroke-miterlimit="10" d="M479.88,275.501c-3.719,0-6.655-1.131-8.805-3.396
			c-2.15-2.267-3.229-5.411-3.229-9.438c0-4.055,1-7.277,2.998-9.666c1.998-2.387,4.68-3.582,8.046-3.582
			c3.155,0,5.647,1.037,7.482,3.113c1.84,2.071,2.76,4.809,2.76,8.207v2.411h-17.337c0.076,2.953,0.82,5.197,2.238,6.728
			c1.416,1.531,3.41,2.295,5.98,2.295c2.711,0,5.389-0.563,8.037-1.696v3.397c-1.348,0.58-2.623,0.998-3.824,1.25
			C483.03,275.376,481.577,275.501,479.88,275.501z M478.845,252.61c-2.021,0-3.629,0.658-4.834,1.974
			c-1.199,1.318-1.908,3.141-2.123,5.467h13.158c0-2.402-0.535-4.243-1.605-5.521C482.368,253.25,480.839,252.61,478.845,252.61z"/>
		<path fill="none" stroke="#FF780A" stroke-miterlimit="10" d="M512.852,275.042v-16.275c0-2.055-0.467-3.584-1.398-4.596
			c-0.934-1.01-2.396-1.516-4.387-1.516c-2.631,0-4.561,0.713-5.785,2.135c-1.227,1.424-1.838,3.773-1.838,7.049v13.203h-3.813
			v-25.164h3.1l0.621,3.443h0.184c0.781-1.24,1.875-2.201,3.283-2.882c1.408-0.682,2.979-1.022,4.707-1.022
			c3.031,0,5.314,0.732,6.842,2.193c1.531,1.463,2.297,3.801,2.297,7.016v16.416H512.852L512.852,275.042z"/>
		<path fill="none" stroke="#FF780A" stroke-miterlimit="10" d="M545.094,249.878v2.41l-4.664,0.551
			c0.428,0.537,0.813,1.236,1.148,2.103c0.336,0.865,0.505,1.842,0.505,2.928c0,2.467-0.843,4.434-2.526,5.902
			c-1.686,1.468-3.992,2.204-6.933,2.204c-0.75,0-1.456-0.063-2.11-0.188c-1.623,0.858-2.438,1.938-2.438,3.239
			c0,0.688,0.285,1.197,0.854,1.526c0.563,0.329,1.537,0.493,2.914,0.493h4.457c2.723,0,4.816,0.574,6.277,1.722
			c1.463,1.147,2.193,2.815,2.193,5.006c0,2.786-1.119,4.909-3.354,6.372c-2.236,1.462-5.494,2.191-9.779,2.191
			c-3.293,0-5.83-0.611-7.613-1.836c-1.785-1.226-2.676-2.955-2.676-5.188c0-1.531,0.49-2.854,1.471-3.974
			c0.979-1.116,2.357-1.875,4.131-2.271c-0.643-0.292-1.182-0.741-1.619-1.354c-0.436-0.611-0.65-1.322-0.65-2.135
			c0-0.918,0.242-1.723,0.732-2.414c0.488-0.688,1.266-1.352,2.32-1.996c-1.303-0.535-2.365-1.445-3.18-2.73
			c-0.82-1.286-1.23-2.756-1.23-4.407c0-2.757,0.826-4.88,2.48-6.373c1.65-1.492,3.996-2.238,7.025-2.238
			c1.314,0,2.502,0.152,3.561,0.459L545.094,249.878L545.094,249.878z M525.022,279.268c0,1.361,0.574,2.396,1.725,3.101
			c1.146,0.705,2.791,1.057,4.936,1.057c3.199,0,5.566-0.479,7.104-1.436c1.541-0.957,2.313-2.254,2.313-3.892
			c0-1.363-0.422-2.311-1.266-2.838c-0.842-0.525-2.426-0.79-4.752-0.79h-4.566c-1.73,0-3.08,0.411-4.043,1.239
			C525.506,276.535,525.022,277.722,525.022,279.268z M527.09,257.938c0,1.761,0.498,3.092,1.49,3.996
			c0.994,0.9,2.383,1.353,4.156,1.353c3.722,0,5.58-1.806,5.58-5.418c0-3.779-1.881-5.67-5.646-5.67
			c-1.793,0-3.17,0.481-4.137,1.445C527.571,254.608,527.09,256.039,527.09,257.938z"/>
		<path fill="none" stroke="#FF780A" stroke-miterlimit="10" d="M549.932,243.058c0-0.871,0.215-1.513,0.643-1.916
			c0.43-0.406,0.967-0.609,1.611-0.609c0.611,0,1.137,0.207,1.58,0.62c0.445,0.414,0.668,1.048,0.668,1.905
			c0,0.856-0.223,1.497-0.668,1.918c-0.443,0.423-0.969,0.631-1.58,0.631c-0.645,0-1.184-0.208-1.611-0.631
			C550.147,244.555,549.932,243.916,549.932,243.058z M554.067,275.042h-3.813v-25.164h3.813V275.042z"/>
		<path fill="none" stroke="#FF780A" stroke-miterlimit="10" d="M579.37,275.042v-16.275c0-2.055-0.465-3.584-1.396-4.596
			c-0.935-1.01-2.396-1.516-4.388-1.516c-2.632,0-4.56,0.713-5.784,2.135c-1.229,1.424-1.838,3.773-1.838,7.049v13.203h-3.813
			v-25.164h3.103l0.62,3.443h0.184c0.78-1.24,1.875-2.201,3.283-2.882c1.406-0.682,2.979-1.022,4.709-1.022
			c3.029,0,5.313,0.732,6.84,2.193c1.53,1.463,2.299,3.801,2.299,7.016v16.416H579.37L579.37,275.042z"/>
		<path fill="none" stroke="#FF780A" stroke-miterlimit="10" d="M601.643,275.501c-3.719,0-6.656-1.131-8.805-3.396
			c-2.152-2.267-3.229-5.411-3.229-9.438c0-4.055,0.998-7.277,2.996-9.666c1.998-2.387,4.68-3.582,8.049-3.582
			c3.154,0,5.646,1.037,7.484,3.113c1.836,2.071,2.756,4.809,2.756,8.207v2.411h-17.338c0.08,2.953,0.824,5.197,2.242,6.728
			c1.414,1.531,3.406,2.295,5.979,2.295c2.709,0,5.389-0.563,8.035-1.696v3.397c-1.346,0.58-2.621,0.998-3.822,1.25
			C604.795,275.376,603.342,275.501,601.643,275.501z M600.61,252.61c-2.021,0-3.631,0.658-4.834,1.974
			c-1.201,1.318-1.91,3.141-2.125,5.467h13.16c0-2.402-0.535-4.243-1.607-5.521C604.133,253.25,602.6,252.61,600.61,252.61z"/>
		<path fill="none" stroke="#FF780A" stroke-miterlimit="10" d="M628.028,275.501c-3.719,0-6.656-1.131-8.805-3.396
			c-2.152-2.267-3.229-5.411-3.229-9.438c0-4.055,0.998-7.277,2.996-9.666c1.998-2.387,4.682-3.582,8.05-3.582
			c3.153,0,5.646,1.037,7.483,3.113c1.836,2.071,2.756,4.809,2.756,8.207v2.411h-17.338c0.08,2.953,0.824,5.197,2.242,6.728
			c1.414,1.531,3.408,2.295,5.979,2.295c2.709,0,5.391-0.563,8.035-1.696v3.397c-1.346,0.58-2.621,0.998-3.822,1.25
			C631.178,275.376,629.725,275.501,628.028,275.501z M626.995,252.61c-2.021,0-3.631,0.658-4.834,1.974
			c-1.199,1.318-1.908,3.141-2.125,5.467h13.16c0-2.402-0.535-4.243-1.605-5.521C630.516,253.25,628.985,252.61,626.995,252.61z"/>
		<path fill="none" stroke="#FF780A" stroke-miterlimit="10" d="M655.26,249.417c1.115,0,2.121,0.092,3.006,0.275l-0.525,3.537
			c-1.043-0.23-1.961-0.347-2.758-0.347c-2.035,0-3.775,0.828-5.223,2.482c-1.445,1.65-2.17,3.711-2.17,6.174v13.502h-3.813v-25.166
			h3.146l0.436,4.662h0.185c0.937-1.638,2.062-2.899,3.378-3.789C652.235,249.863,653.682,249.417,655.26,249.417z"/>
		<path fill="none" stroke="#FF780A" stroke-miterlimit="10" d="M662.653,243.058c0-0.871,0.215-1.513,0.645-1.916
			c0.428-0.406,0.967-0.609,1.609-0.609c0.611,0,1.139,0.207,1.58,0.62c0.445,0.414,0.668,1.048,0.668,1.905
			c0,0.856-0.223,1.497-0.668,1.918c-0.441,0.423-0.969,0.631-1.58,0.631c-0.645,0-1.184-0.208-1.609-0.631
			C662.868,244.555,662.653,243.916,662.653,243.058z M666.788,275.042h-3.813v-25.164h3.813V275.042z"/>
		<path fill="none" stroke="#FF780A" stroke-miterlimit="10" d="M692.09,275.042v-16.275c0-2.055-0.469-3.584-1.4-4.596
			c-0.932-1.01-2.396-1.516-4.385-1.516c-2.633,0-4.563,0.713-5.787,2.135c-1.226,1.424-1.836,3.773-1.836,7.049v13.203h-3.814
			v-25.164h3.104l0.621,3.443h0.182c0.783-1.24,1.875-2.201,3.285-2.882c1.408-0.682,2.977-1.022,4.707-1.022
			c3.03,0,5.313,0.732,6.842,2.193c1.531,1.463,2.297,3.801,2.297,7.016v16.416H692.09L692.09,275.042z"/>
		<path fill="none" stroke="#FF780A" stroke-miterlimit="10" d="M724.327,249.878v2.41l-4.662,0.551
			c0.43,0.537,0.813,1.236,1.148,2.103c0.338,0.865,0.506,1.842,0.506,2.928c0,2.467-0.842,4.434-2.525,5.902
			c-1.686,1.468-3.994,2.204-6.936,2.204c-0.75,0-1.455-0.063-2.111-0.188c-1.623,0.858-2.436,1.938-2.436,3.239
			c0,0.688,0.283,1.197,0.852,1.526c0.563,0.329,1.537,0.493,2.914,0.493h4.455c2.725,0,4.818,0.574,6.281,1.722
			s2.193,2.815,2.193,5.006c0,2.786-1.119,4.909-3.354,6.372c-2.234,1.462-5.496,2.191-9.781,2.191
			c-3.293,0-5.828-0.611-7.611-1.836c-1.783-1.226-2.677-2.955-2.677-5.188c0-1.531,0.491-2.854,1.474-3.974
			c0.977-1.116,2.355-1.875,4.131-2.271c-0.643-0.292-1.182-0.741-1.619-1.354c-0.436-0.611-0.651-1.322-0.651-2.135
			c0-0.918,0.241-1.723,0.733-2.414c0.488-0.688,1.264-1.352,2.318-1.996c-1.302-0.535-2.363-1.445-3.182-2.73
			c-0.816-1.286-1.229-2.756-1.229-4.407c0-2.757,0.826-4.88,2.479-6.373c1.65-1.492,3.996-2.238,7.027-2.238
			c1.313,0,2.502,0.152,3.557,0.459L724.327,249.878L724.327,249.878z M704.26,279.268c0,1.361,0.57,2.396,1.723,3.101
			c1.146,0.705,2.793,1.057,4.937,1.057c3.196,0,5.567-0.479,7.104-1.436c1.541-0.957,2.311-2.254,2.311-3.892
			c0-1.363-0.424-2.311-1.264-2.838c-0.842-0.525-2.428-0.79-4.752-0.79h-4.57c-1.729,0-3.077,0.411-4.043,1.239
			C704.741,276.535,704.26,277.722,704.26,279.268z M706.325,257.938c0,1.761,0.498,3.092,1.49,3.996
			c0.996,0.9,2.383,1.353,4.156,1.353c3.723,0,5.582-1.806,5.582-5.418c0-3.779-1.883-5.67-5.648-5.67
			c-1.793,0-3.17,0.481-4.133,1.445C706.807,254.608,706.325,256.039,706.325,257.938z"/>
		<path fill="none" stroke="#FF780A" stroke-miterlimit="10" d="M767.772,275.042h-3.904v-15.797h-17.68v15.797h-3.902v-33.566
			h3.902v14.279h17.68v-14.279h3.904V275.042z"/>
		<path fill="none" stroke="#FF780A" stroke-miterlimit="10" d="M780.883,261.082v13.961h-3.9v-33.566h9.207
			c4.115,0,7.16,0.787,9.127,2.363c1.965,1.576,2.949,3.947,2.949,7.119c0,4.438-2.25,7.438-6.75,8.998l9.115,15.086h-4.615
			l-8.127-13.961H780.883z M780.883,257.73h5.352c2.756,0,4.777-0.548,6.063-1.644c1.283-1.094,1.928-2.734,1.928-4.924
			c0-2.221-0.654-3.82-1.963-4.799c-1.309-0.98-3.41-1.472-6.305-1.472h-5.074L780.883,257.73L780.883,257.73z"/>
		<path fill="none" stroke="#FF780A" stroke-miterlimit="10" d="M829.401,275.501c-1.639,0-3.137-0.301-4.49-0.904
			c-1.354-0.604-2.488-1.534-3.408-2.79h-0.273c0.182,1.47,0.273,2.86,0.273,4.18v10.354h-3.813v-36.463h3.1l0.529,3.443h0.186
			c0.979-1.378,2.119-2.373,3.422-2.984c1.301-0.61,2.793-0.92,4.479-0.92c3.336,0,5.91,1.143,7.729,3.422
			c1.811,2.281,2.719,5.48,2.719,9.6c0,4.133-0.924,7.345-2.766,9.633C835.237,274.358,832.676,275.501,829.401,275.501z
			 M828.848,252.656c-2.57,0-4.436,0.713-5.58,2.135c-1.146,1.424-1.736,3.689-1.768,6.797v0.852c0,3.537,0.59,6.064,1.768,7.59
			c1.178,1.521,3.068,2.284,5.672,2.284c2.174,0,3.877-0.881,5.107-2.642c1.23-1.76,1.852-4.188,1.852-7.278
			c0-3.138-0.619-5.544-1.852-7.222C832.817,253.494,831.083,252.656,828.848,252.656z"/>
		<path fill="none" stroke="#FF780A" stroke-miterlimit="10" d="M857.987,249.417c1.117,0,2.121,0.092,3.008,0.275l-0.525,3.537
			c-1.043-0.23-1.959-0.347-2.756-0.347c-2.037,0-3.775,0.828-5.225,2.482c-1.443,1.65-2.172,3.711-2.172,6.174v13.502h-3.813
			v-25.166h3.146l0.438,4.662h0.182c0.936-1.638,2.061-2.899,3.379-3.789C854.965,249.863,856.409,249.417,857.987,249.417z"/>
		<path fill="none" stroke="#FF780A" stroke-miterlimit="10" d="M887.427,262.438c0,4.103-1.033,7.306-3.104,9.607
			c-2.064,2.307-4.922,3.455-8.563,3.455c-2.25,0-4.248-0.525-5.994-1.584c-1.744-1.055-3.09-2.568-4.039-4.547
			c-0.951-1.973-1.424-4.285-1.424-6.934c0-4.103,1.021-7.3,3.073-9.586c2.054-2.287,4.899-3.435,8.544-3.435
			c3.521,0,6.316,1.17,8.393,3.514C886.385,255.273,887.427,258.441,887.427,262.438z M868.251,262.438
			c0,3.216,0.644,5.664,1.931,7.349c1.285,1.686,3.176,2.525,5.672,2.525s4.389-0.839,5.684-2.517
			c1.293-1.676,1.939-4.131,1.939-7.357c0-3.199-0.646-5.628-1.939-7.291c-1.295-1.66-3.202-2.49-5.729-2.49
			c-2.496,0-4.379,0.819-5.65,2.457C868.887,256.75,868.251,259.193,868.251,262.438z"/>
		<path fill="none" stroke="#FF780A" stroke-miterlimit="10" d="M904.163,275.501c-3.643,0-6.463-1.119-8.461-3.361
			s-2.998-5.414-2.998-9.52c0-4.209,1.018-7.461,3.041-9.758c2.029-2.297,4.92-3.445,8.67-3.445c1.209,0,2.422,0.131,3.629,0.393
			c1.209,0.26,2.156,0.564,2.848,0.919l-1.172,3.235c-0.842-0.336-1.758-0.613-2.754-0.838c-0.996-0.221-1.875-0.334-2.643-0.334
			c-5.113,0-7.67,3.264-7.67,9.783c0,3.09,0.623,5.463,1.871,7.117c1.248,1.653,3.098,2.479,5.547,2.479
			c2.098,0,4.248-0.448,6.451-1.354v3.375C908.84,275.067,906.719,275.501,904.163,275.501z"/>
		<path fill="none" stroke="#FF780A" stroke-miterlimit="10" d="M927.126,275.501c-3.72,0-6.655-1.131-8.806-3.396
			c-2.151-2.267-3.227-5.411-3.227-9.438c0-4.055,0.998-7.277,2.996-9.666c1.997-2.387,4.68-3.582,8.049-3.582
			c3.152,0,5.646,1.037,7.48,3.113c1.838,2.071,2.759,4.809,2.759,8.207v2.411H919.04c0.078,2.953,0.822,5.197,2.24,6.728
			c1.416,1.531,3.41,2.295,5.982,2.295c2.709,0,5.387-0.563,8.035-1.696v3.397c-1.348,0.58-2.623,0.998-3.822,1.25
			S928.823,275.501,927.126,275.501z M926.092,252.61c-2.021,0-3.629,0.658-4.834,1.974c-1.199,1.318-1.908,3.141-2.123,5.467h13.16
			c0-2.402-0.537-4.243-1.607-5.521C929.614,253.25,928.083,252.61,926.092,252.61z"/>
		<path fill="none" stroke="#FF780A" stroke-miterlimit="10" d="M959.11,268.18c0,2.34-0.873,4.146-2.619,5.418
			c-1.742,1.271-4.193,1.902-7.346,1.902c-3.338,0-5.939-0.525-7.809-1.584v-3.535c1.211,0.611,2.508,1.096,3.893,1.447
			c1.385,0.353,2.723,0.527,4.008,0.527c1.988,0,3.521-0.318,4.59-0.953c1.072-0.636,1.607-1.604,1.607-2.904
			c0-0.979-0.424-1.816-1.271-2.515c-0.852-0.696-2.51-1.52-4.973-2.468c-2.342-0.874-4.006-1.636-4.996-2.285
			c-0.986-0.652-1.721-1.392-2.201-2.215c-0.48-0.828-0.727-1.814-0.727-2.964c0-2.053,0.836-3.67,2.506-4.854
			c1.668-1.188,3.955-1.781,6.863-1.781c2.711,0,5.359,0.553,7.945,1.653l-1.354,3.101c-2.527-1.041-4.814-1.562-6.865-1.562
			c-1.807,0-3.17,0.283-4.088,0.851c-0.92,0.566-1.377,1.348-1.377,2.342c0,0.675,0.17,1.248,0.518,1.724
			c0.346,0.475,0.898,0.928,1.664,1.354c0.768,0.431,2.232,1.051,4.408,1.86c2.984,1.089,5,2.183,6.049,3.284
			C958.588,265.123,959.11,266.509,959.11,268.18z"/>
		<path fill="none" stroke="#FF780A" stroke-miterlimit="10" d="M981.542,268.18c0,2.34-0.871,4.146-2.615,5.418
			c-1.744,1.271-4.195,1.902-7.348,1.902c-3.338,0-5.938-0.525-7.809-1.584v-3.535c1.209,0.611,2.508,1.096,3.891,1.447
			c1.389,0.354,2.725,0.527,4.012,0.527c1.986,0,3.52-0.318,4.59-0.953c1.07-0.636,1.605-1.604,1.605-2.904
			c0-0.979-0.426-1.816-1.271-2.515c-0.852-0.696-2.508-1.52-4.975-2.468c-2.34-0.874-4.004-1.636-4.993-2.285
			c-0.985-0.652-1.722-1.392-2.202-2.215c-0.48-0.828-0.727-1.814-0.727-2.964c0-2.053,0.836-3.67,2.506-4.854
			c1.666-1.188,3.955-1.781,6.863-1.781c2.709,0,5.359,0.553,7.947,1.653l-1.355,3.101c-2.525-1.041-4.813-1.562-6.863-1.562
			c-1.809,0-3.174,0.283-4.09,0.851c-0.92,0.566-1.377,1.348-1.377,2.342c0,0.675,0.17,1.248,0.52,1.724
			c0.342,0.475,0.896,0.928,1.662,1.354c0.766,0.431,2.232,1.051,4.408,1.86c2.982,1.089,5,2.183,6.051,3.284
			C981.02,265.123,981.542,266.509,981.542,268.18z"/>
	</g>
	<g>
		<path fill="none" stroke="#FF780A" stroke-width="2" stroke-miterlimit="10" d="M478.362,199.882
			c-10.898,10.892-25.381,16.346-39.703,16.346c-36.734,0-55.895-25.69-56.047-55.11c-0.317-29.118,18.686-56.359,56.047-56.359
			c14.322,0,28.805,5.448,39.703,16.35l-5.762,4.98c-9.342-9.337-21.645-13.854-33.941-13.854c-31.764,0-48.11,22.418-47.953,48.568
			c0.311,25.534,16.502,47.644,47.953,47.644c12.299,0,24.754-4.67,34.09-13.851L478.362,199.882z"/>
		<path fill="none" stroke="#FF780A" stroke-width="2" stroke-miterlimit="10" d="M491.432,176.686
			c0-24.443,17.439-40.015,39.088-40.015c21.633,0,39.076,15.57,39.076,40.015c0,24.438-17.443,39.384-39.076,39.384
			C508.874,216.069,491.432,201.123,491.432,176.686z M562.12,176.686c0-19.932-14.174-32.854-31.6-32.854
			c-17.439,0-31.609,12.924-31.609,32.854c0,19.926,14.17,31.916,31.609,31.916C547.946,208.602,562.12,196.611,562.12,176.686z"/>
		<path fill="none" stroke="#FF780A" stroke-width="2" stroke-miterlimit="10" d="M594.346,138.074l0.313,13.698
			c4.828-10.435,15.729-14.48,25.527-14.48c5.77-0.149,11.369,1.4,16.502,4.521l-3.416,6.227c-4.055-2.492-8.57-3.58-13.086-3.58
			c-14.318,0.152-25.373,11.673-25.373,25.689v44.831h-7.627v-76.904L594.346,138.074L594.346,138.074z"/>
		<path fill="none" stroke="#FF780A" stroke-width="2" stroke-miterlimit="10" d="M722.17,138.074c0,25.689,0,51.22,0,76.904h-7.635
			v-16.347c-7.465,11.99-18.995,17.595-31.447,17.595c-21.488,0-39.078-16.188-39.078-39.695c0-23.511,17.59-39.39,39.078-39.39
			c12.452,0,25.066,5.761,31.447,17.74v-16.809L722.17,138.074L722.17,138.074z M651.645,176.531
			c0,19.305,14.01,32.225,31.441,32.225c42.82,0,42.82-64.297,0-64.297C665.655,144.458,651.645,157.221,651.645,176.531z"/>
		<path fill="none" stroke="#FF780A" stroke-width="2" stroke-miterlimit="10" d="M750.508,106.005v108.975h-7.637V106.005H750.508z
			"/>
		<path fill="none" stroke="#FF780A" stroke-width="2" stroke-miterlimit="10" d="M845.161,215.136v-44.06h-53.564v44.06h-20.545
			V106.153h20.545v45.932h53.564v-45.932h20.395v108.982L845.161,215.136L845.161,215.136z"/>
		<path fill="none" stroke="#FF780A" stroke-width="2" stroke-miterlimit="10" d="M981.542,214.979h-24.438l-31.762-36.43h-19.779
			v36.43H885.01V105.848c17.281,0,34.566,0.156,51.848,0.156c25.688,0.148,39.23,17.281,39.23,36.118
			c0,14.943-6.846,30.046-27.555,34.25l33.008,37.209V214.979L981.542,214.979z M905.563,125.148v34.877h31.295
			c13.076,0,18.689-8.727,18.689-17.438c0-8.716-5.77-17.438-18.689-17.438L905.563,125.148L905.563,125.148z"/>
	</g>
</g>
</svg>
