<?xml version="1.0" encoding="utf-8"?>
<!DOCTYPE svg PUBLIC "-//W3C//DTD SVG 1.1//EN" "http://www.w3.org/Graphics/SVG/1.1/DTD/svg11.dtd">
<svg version="1.1" id="Layer_1" xmlns="http://www.w3.org/2000/svg" xmlns:xlink="http://www.w3.org/1999/xlink" x="0px" y="0px"
	 width="997.447px" height="451.477px" viewBox="0 0 997.447 451.477" enable-background="new 0 0 997.447 451.477"
	 xml:space="preserve">
<g>
	<path fill="#D9E021" d="M246.386,390.514c-5.456-10.56-20.404-12.523-28.228-20.563c-10.199-10.334-4.804-26.63-11.481-37.693
		c-4.489-7.375-6.369-7.674-6.123-16.961c0.191-6.562-0.187-13.853-1.093-20.334c-2.201-16.821-10.738-30.346-21.461-43.126
		c-10.434-12.768-24.015-19.377-39.416-26.43c-6.168-2.848-8.717-8.626-13.557-12.732c-4.868-4.242-10.565-3.57-16.981-4.001
		c0.931,4.659-3.449,25.397-8.06,28.188c-5.801,3.463-10.311-7.596-16.744-5.244c-7.729,2.834-7.625,13.445-14.17,16.301
		c-14.651,6.473-9.37-10.355-8.582-16.082c1.713-11.832-9.931-8.159-15.308-12.839c-2.809-2.385-3.805-7.041-8.424-7.157
		c-4.902-0.209-8.807,2.301-13.776,0.859c-3.926-1.173-13.173-13.503-15.231-6.259c-1.144,4.063,0.269,9.953-1.916,13.747
		l0.002,0.011c7.276,10.596,17.795,19.252,19.86,32.485c1.475,9.138,3.642,31.941,11.195,37.688
		c8.786,6.598,17.382,16.914,15.054,28.734c-1.226,6.028,10.29,20.172,18.542,17.223c-13.581,7.281-0.479,7.479,2.825,12.174
		c6.809,9.723,21.451,14.248,28.687,23.727c2.315,3.051,7.481,9.604,5.313,13.787c-1.958,3.83-2.793,4.84,2.514,6.834
		c5.491,2.041,9.215,6.453,15.646,6.65c4.198,0.086,7.595-0.291,10.349,2.861c4.104,4.549,14.454,10.385,20.727,12.805
		c6.225,2.412,14.246,0.629,20.041,3.676c3.61,1.943,6.701,4.43,10.439,6.256c14.53,6.957,36.728,6.802,45.081,21.4
		c4.635-3.289,16.219-14.084,22.508-11.684c6.204,2.411,0.183-8.859-0.76-9.992c2.275,2.858,6.116,4.246,10.086,3.268
		c-9.235,8.781,15.456,13.846,7.012-3.229C264.692,412.154,252.806,403.035,246.386,390.514z"/>
	<path fill="#D9E021" d="M960.778,95.571c8.832-1.267,31.864-14.39,30.142-24.381c-1.192-6.9-15.178-8.556-19.047-1.678
		c-2.975-3.882-14.388-11.723-19.432-4.813c-1.803-6.484-13.529-15.79-21.319-9.047c-3.639,3.142-12.361,14.319-14.813,5.118
		c5.065-2.901,14.213-11.794,2.777-13.592c-6.029-0.996-7.455,4.725-11.197,7.68c-3.906,3.143-9.02,2.208-13.536,4.349
		c6.053-3.933,6.439-6.442,3.32-13.134c-2.979-6.452,4.991-6.211,4.849-11.388c-0.13-7.761-13.393-7.768-15.108-13.854
		C887.186,36.644,866.06,6.43,865.571,6.392c-6.94,0.381-9.314,20.472-14.296,24.809c-4.326-6.929,2.702-16.003-5.072-21.768
		c-7.571,9.399-5.069,21.083-10.64,30.754c-2.546,4.363-4.175,10.346-6.609,14.203c-2.041,3.139-4.936,1.68-6.441,6.302
		c-2.646,8.071-2.791,16.505-5.787,24.584c-1.947,5.21-15.228,20.348-15.62,9.108c-3.611,6.539-16.23,19.239-1.147,21.218
		c9.988,1.275-0.738,12.181-3.792,15.405c-3.219,3.468-15.87,0.477-8.057,8.464c6.193,6.245,10.152,15.332,11.022,23.897
		c-16.151,0.186-16.463-15.579-20.77-25.979c-5.435,8.034-15.381,14.822-4.575,24.106c4.763,4.057,5.268,21.661-3.968,23.288
		c-5.229,0.921-19.438-8.333-22.389-12.088c-4.987-6.437-7.829-10.621-17.864-8.749c2.063,17.414-3.584,32.233-15.521,46.6
		c-9.311,11.293-6.76,27.507-17.65,37.954c-12.675,12.145-36.487,20.588-53.046,26.648c-10.453,3.813-33.904,23.356-14.428,31.354
		c-4.951,0.777-9.829-0.543-14.821,0.461c-0.473,4.955,4.93,8.724,1.038,13.647c3.272-0.963,6.604-1.961,9.862-2.985
		c-3.418,4.474-7.304,2.877-7.635,9.203c-0.112,2.649-0.544,5.235-1.162,7.864c-0.761,4.529,0.031,8.56,4.019,10.804
		c-5.136-1.442-8.023,3.63-5.603,8.373c4.123,8.221,13.318,0.892,19.154,5.771c-6.896,0.904-14.246,1.933-19.941-1.99
		c-6.258-4.284-9.11,0.986-15.58,0.203c-4.2-0.412-15.362-0.319-14.979-5.678c0.171-1.766-6.488-0.777-7.402-4.74
		c3.201,14.041-36.352,8.963-37.633-6.733l-0.021,0.004c0.17,6.617-7.05,11.44,2.57,13.957c4.726,1.219,5.271,10.621,8.037,13.834
		c3.003,3.603,7.322,2.416,11.17,4.438c3.935,2.131,6.121,5.908,10.105,7.967c3.203,1.679,10.986,7.168,13.974,7.229
		c9.84,0.168,11.774,8.595,22.418,1.175c7.708-5.479,13.307-11.533,23.317-13.107c5.78-0.91,11.11,1.91,16.393,0.014
		c4.533-1.518,9.069-3.123,13.646-4.43c-0.66,0.188,13.545-11.652,13.345-10.645c0.943-4.994,1.479-10.668,3.354-15.509
		c3.948-10.387,35.37-18.141,41.7-11.573c4.71,4.834,19.302,6.151,26.214,5.635c10.48-0.711,11.342-7.129,18.243-12.5
		c5.075-3.887,11.786-0.027,16.901-4.449c7.42-6.533,8.423-1.541,16.32-3.58c-3.437-7.885,12.84-30.186,6.45-34.377
		c-10.978-7.234,7.616-23.51,14.95-27.573c-4.646-3.512-17.256-23.481-3.354-26.718c12.828-3.031,8.559-7.041,9.261-17.759
		c0.432-6.677,3.064-8.073-0.444-14.344c-2.319-4.1-2.567-9.45-2.775-14c-0.272-5.763-0.081-13.046,1.909-18.68
		c1.562-4.36,5.559-6.747,5.854-11.601c4.058,0.455,10.296,5.979,12.74,0.534c2.18-4.842,4.051-1.623,8.019-3.521
		c5.332-2.596,14.688,5.335,13.518-5.246c11.882,6.757,25.643-7.162,38.377-2.873c4.27,1.449,12.859,6.634,17.561,2.214
		c2.996-2.873-0.578-8.835-0.038-12.146c14.614,6.949,20.195,2.145,35.029-2.146c4.656-1.347,11.489-1.835,13.619-6.799
		c2.014-4.599-2.498-7.801-6.701-4.122c-0.104-7.55-15.982-6.799-19.918-12.202C930.298,94.031,954.632,96.394,960.778,95.571z"/>
</g>
<g>
	<path fill="#FFFFFF" d="M316.043,187.022l-4.345-4.344l-7.147-7.15l-68.979-38.319c0,0-3.488-1.787-5.616,0.342
		c-1.272,1.271-0.474,4.434,0.464,6.861l0.899-0.9l42.063,36.615l-4.427,4.427c13.164,13.164,24.778,24.778,24.778,24.778
		L316.043,187.022z"/>
	<path fill="#FF7F50" d="M231.32,143.512l-0.899,0.9c0.389,1.004,0.797,1.881,1.103,2.452l5.244,5.5
		c6.945,6.947,20.206,20.207,32.188,32.188l4.427-4.427L231.32,143.512z"/>
	<path fill="#FF7F50" d="M317.597,186.79c0,0-1.342-0.51-2.012,0.159c-0.672,0.671-11.815,8.173-22.419,17.755
		c0,0-2.712,2.009-1.37,3.351c0,0,1.087,3.004-0.797,4.887c-1.886,1.885,6.066-1.662,6.066-1.662L317.597,186.79z"/>
	<path fill="#FFFFFF" d="M328.185,199.162l4.345,4.346l7.151,7.151l38.316,68.975c0,0,1.786,3.487-0.342,5.617
		c-1.271,1.271-4.433,0.476-6.858-0.461l0.899-0.901l-36.615-42.063l-4.427,4.428c-13.164-13.164-24.779-24.78-24.779-24.78
		L328.185,199.162z"/>
	<path fill="#FF7F50" d="M371.697,283.889l-0.899,0.901c-1.007-0.394-1.89-0.806-2.451-1.104l-5.503-5.244
		c-6.947-6.948-20.206-20.207-32.188-32.188l4.428-4.428L371.697,283.889z"/>
	<path fill="#FF7F50" d="M328.416,197.61c0,0,0.513,1.345-0.155,2.013c-0.671,0.671-8.177,11.813-17.758,22.417
		c0,0-2.013,2.71-3.352,1.37c0,0-3.001-1.084-4.884,0.8c-1.885,1.885,1.659-6.07,1.659-6.07L328.416,197.61z"/>
	<path fill="#FFFFFF" d="M346.921,174.159c1.215-3.806,0.864-5.177,0.479-5.665l0,0l0,0c-0.052-0.063-0.104-0.115-0.152-0.151
		l-0.384-0.384c-0.038-0.048-0.089-0.1-0.151-0.152l0,0l0,0c-0.489-0.386-1.858-0.735-5.667,0.476
		c-5.812,1.854-21.137,15.265-21.137,15.265s-23.5,23.5-31.485,31.486c-7.981,7.981-15.006,15.006-19.926,22.991
		c-4.917,7.979-18.412,23.52-21.224,27.012c-2.806,3.492-1.83,4.725-1.83,4.725s1.237,0.98,4.728-1.828
		c3.49-2.813,19.032-16.307,27.012-21.223c7.984-4.92,15.01-11.943,22.99-19.925c7.985-7.985,31.485-31.486,31.485-31.486
		S345.071,179.973,346.921,174.159z"/>
	<path fill="#FFFFFF" d="M236.076,242.43c0,0-3.068-0.861-5.801,1.566c3.771,3.771,16.432,16.431,17.083,17.081
		c0.768,0.768,0.086,1.448,0.086,1.448l-2.23,2.23c0.468,0.215,0.96,0.541,1.464,1.043c0.949,0.949,1.271,1.271,1.363,1.363
		l12.048-16.477L236.076,242.43z"/>
	<path fill="#FF7F50" d="M247.359,261.078c-0.651-0.65-13.313-13.311-17.083-17.081c-0.093,0.08-0.188,0.171-0.281,0.258
		c-0.016,0.017-0.029,0.03-0.029,0.03c-2.829,2.829-1.722,6.998-0.868,7.852c0.85,0.853,11.579,11.579,11.579,11.579
		s0.464,0.335,1.029,0.538c0.241,0.082,0.504,0.145,0.759,0.146c0.606-0.002,1.598-0.17,2.751,0.356l2.23-2.231
		C247.445,262.525,248.126,261.845,247.359,261.078z"/>
	<path fill="#FFFFFF" d="M272.777,279.132c0,0,0.862,3.066-1.564,5.8c-3.772-3.771-16.432-16.431-17.083-17.082
		c-0.768-0.768-1.448-0.086-1.448-0.086l-2.229,2.229c-0.218-0.471-0.54-0.96-1.049-1.469c-0.944-0.944-1.267-1.268-1.36-1.36
		l16.479-12.047L272.777,279.132z"/>
	<path fill="#FF7F50" d="M254.129,267.85c0.651,0.651,13.311,13.311,17.083,17.082c-0.08,0.094-0.171,0.188-0.261,0.28
		c-0.016,0.017-0.029,0.031-0.029,0.031c-2.829,2.828-7.001,1.717-7.851,0.868c-0.853-0.854-11.578-11.579-11.578-11.579
		s-0.335-0.464-0.54-1.031c-0.083-0.242-0.146-0.506-0.146-0.76c0.003-0.605,0.168-1.597-0.355-2.749l2.229-2.229
		C252.681,267.764,253.362,267.083,254.129,267.85z"/>
	<g>
		<path fill="#FF7F50" d="M284.277,230.166c-0.727,0.639-27.975,27.46-27.975,27.46l-8.282,8.921c0,0-0.4,0.615-0.188,0.828
			l37.807-37.809C285.639,229.566,284.998,229.525,284.277,230.166z"/>
		<path fill="#FF7F50" d="M285.042,230.932c0.64-0.722,0.598-1.365,0.598-1.365l-37.807,37.809c0.214,0.215,0.83-0.188,0.83-0.188
			l8.917-8.285C257.579,258.902,284.404,231.659,285.042,230.932z"/>
	</g>
	<path fill="#BABABA" d="M319.713,174.229c0,0,1.445-1.275-0.171-2.894c-1.617-1.616-1.831-1.83-1.831-1.83
		s-0.211-0.212-1.831-1.833c-1.619-1.618-2.896-0.171-2.896-0.171s-0.39,0.332-2.533,2.302l6.962,6.962
		C319.381,174.621,319.713,174.229,319.713,174.229z"/>
	<path fill="#BABABA" d="M310.704,184c2.317-2.485,4.041-4.348,5.33-5.741l-7.081-7.079c-1.393,1.287-3.252,3.014-5.739,5.33
		c-8.667,8.067-7.003,14.495-7.003,14.495S302.638,192.666,310.704,184z"/>
	<path fill="#555555" d="M317.204,176.557l-6.547-6.548c-0.427,0.391-0.918,0.849-1.492,1.384l6.654,6.654
		C316.356,177.473,316.812,176.979,317.204,176.557z"/>
	<path fill="#DEDDDE" d="M312.465,173.345c0,0-3.292,3.161-2.524,3.929l3.449-3.45C313.39,173.824,313.134,173.631,312.465,173.345z
		"/>
	<path fill="#706D6E" d="M313.865,174.746c0,0-3.16,3.293-3.925,2.528l3.449-3.45C313.39,173.824,313.581,174.079,313.865,174.746z"
		/>
	<path fill="#555555" d="M319.976,167.896c-0.122-0.123-0.203-0.203-0.266-0.266c0,0-0.001-0.002-0.009-0.009
		c-0.013-0.012-0.045-0.045-0.106-0.105c-0.007-0.007-0.009-0.009-0.009-0.009c-0.063-0.062-0.146-0.146-0.269-0.269
		c-0.489-0.488-1.203,0.076-1.203,0.076l-1.298,1.299l0.839,0.839l0.107,0.107l0.839,0.838l1.298-1.298
		C319.901,169.099,320.467,168.385,319.976,167.896z"/>
	<path fill="#BABABA" d="M347.33,202.599c0,0,1.446-1.279-0.17-2.896c-1.62-1.62-1.833-1.833-1.833-1.833s-0.214-0.214-1.83-1.83
		c-1.618-1.619-2.895-0.17-2.895-0.17s-0.393,0.329-2.535,2.298l6.961,6.962C346.997,202.988,347.33,202.599,347.33,202.599z"/>
	<path fill="#BABABA" d="M338.323,212.368c2.315-2.486,4.043-4.347,5.33-5.744l-7.08-7.079c-1.394,1.29-3.256,3.016-5.739,5.332
		c-8.666,8.066-7.008,14.496-7.008,14.496S330.259,221.032,338.323,212.368z"/>
	<path fill="#555555" d="M344.793,204.894l-6.491-6.491c-0.421,0.392-0.917,0.853-1.488,1.382l6.601,6.599
		C343.944,205.813,344.404,205.318,344.793,204.894z"/>
	<path fill="#DEDDDE" d="M340.078,201.714c0,0-3.286,3.163-2.521,3.929l3.45-3.45C341.006,202.192,340.752,202.003,340.078,201.714z
		"/>
	<path fill="#706D6E" d="M341.485,203.12c0,0-3.161,3.29-3.928,2.522l3.45-3.45C341.006,202.192,341.199,202.451,341.485,203.12z"/>
	<path fill="#656263" d="M347.594,196.26c-0.12-0.119-0.206-0.205-0.264-0.262c0,0-0.003-0.002-0.011-0.01
		c-0.012-0.014-0.043-0.043-0.109-0.11c-0.003-0.002-0.005-0.004-0.01-0.009c-0.059-0.06-0.142-0.143-0.262-0.263
		c-0.492-0.491-1.203,0.075-1.203,0.075l-1.299,1.299l0.835,0.835l0.109,0.109l0.841,0.841l1.298-1.299
		C347.52,197.466,348.085,196.752,347.594,196.26z"/>
	
		<ellipse transform="matrix(0.7068 -0.7074 0.7074 0.7068 -24.8082 275.2556)" fill="#FFFFFF" cx="319.665" cy="167.556" rx="0.418" ry="9.573"/>
	<path fill="#FFFFFF" d="M354.115,202.625c-0.165,0.164-3.33-2.732-7.069-6.473c-3.736-3.737-6.634-6.901-6.469-7.065
		c0.163-0.163,3.326,2.735,7.063,6.472C351.379,199.299,354.277,202.461,354.115,202.625z"/>
	<path fill="#B52126" d="M320.528,166.944c-0.048-0.049-0.08-0.082-0.104-0.105c0,0,0,0-0.001-0.001
		c-0.005-0.005-0.021-0.019-0.043-0.043l-0.005-0.005c-0.022-0.024-0.056-0.056-0.101-0.1c-0.189-0.191-0.468,0.027-0.468,0.027
		l-0.505,0.505l0.326,0.326l0.042,0.041l0.323,0.324l0.504-0.504C320.497,167.408,320.715,167.131,320.528,166.944z"/>
	<path fill="#B52126" d="M348.143,195.309c-0.045-0.044-0.08-0.079-0.1-0.099c0,0,0,0-0.008-0.006
		c-0.005-0.005-0.017-0.018-0.042-0.042l-0.002-0.003c-0.024-0.025-0.055-0.055-0.104-0.104c-0.188-0.188-0.466,0.029-0.466,0.029
		l-0.503,0.502l0.325,0.326l0.041,0.041l0.326,0.325l0.503-0.503C348.114,195.775,348.334,195.5,348.143,195.309z"/>
	<path fill="#FF7F50" d="M346.205,175.849c0.311-0.623,0.557-1.189,0.716-1.689c1.215-3.806,0.864-5.177,0.479-5.665
		c-0.052-0.063-0.104-0.115-0.152-0.151l-0.384-0.384c-0.038-0.048-0.089-0.1-0.151-0.152l0,0c-0.489-0.386-1.858-0.735-5.667,0.476
		c-0.496,0.162-1.065,0.406-1.687,0.719L346.205,175.849z"/>
	<path fill="#F9F9F9" d="M247.637,265.398c2.894-3.408,16.647-18.69,21.949-26.289c5.305-7.6,12.328-14.623,20.311-22.604
		c7.983-7.984,31.484-31.485,31.484-31.485s15.082-13.656,20.401-15.999c3.483-1.537,4.639-1.403,5.019-1.129
		c0.009,0.009,0.02,0.02,0.031,0.027c-0.035-0.038-0.071-0.075-0.118-0.114l0,0c-0.491-0.384-1.859-0.732-5.669,0.479
		c-5.812,1.854-21.137,15.265-21.137,15.265s-23.5,23.5-31.483,31.484c-7.983,7.983-15.006,15.006-19.926,22.99
		c-4.918,7.98-18.413,23.521-21.225,27.014c-2.807,3.49-1.83,4.725-1.83,4.725S244.743,268.802,247.637,265.398z"/>
	<path fill="#F9F9F9" d="M346.921,174.159c1.215-3.806,0.864-5.177,0.48-5.666c-0.041-0.047-0.081-0.088-0.114-0.118
		c0.006,0.009,0.018,0.021,0.025,0.029c0.277,0.384,0.409,1.536-1.127,5.021c-2.35,5.315-15.998,20.404-15.998,20.404
		s-23.502,23.501-31.484,31.484s-15.006,15.005-22.606,20.309c-7.601,5.298-22.884,19.051-26.292,21.946
		c-3.405,2.896-4.363,2.191-4.363,2.191s1.237,0.98,4.728-1.828c3.49-2.813,19.032-16.307,27.015-21.225
		c7.984-4.92,15.007-11.941,22.99-19.926c7.982-7.982,31.482-31.483,31.482-31.483S345.071,179.973,346.921,174.159z"/>
	<polygon fill="#608DA2" points="339.995,174.818 339.037,175.777 336.16,175.778 336.272,174.63 	"/>
	<polygon fill="#608DA2" points="335.656,174.65 335.589,175.609 333.482,175.67 333.439,174.564 	"/>
	<polygon fill="#608DA2" points="332.78,174.714 332.887,175.714 331.416,177.184 330.504,176.99 330.545,176.438 	"/>
	<polygon fill="#608DA2" points="340.389,175.211 339.431,176.17 339.428,179.045 340.578,178.936 	"/>
	<polygon fill="#608DA2" points="340.559,179.552 339.598,179.618 339.537,181.725 340.643,181.768 	"/>
	<polygon fill="#608DA2" points="340.492,182.427 339.494,182.32 338.023,183.792 338.217,184.703 338.769,184.662 	"/>
	<g>
		<polygon opacity="0.3" fill="#231F20" enable-background="new    " points="336.16,175.778 339.037,175.777 339.357,175.457 
			336.212,175.295 		"/>
		<polygon opacity="0.3" fill="#231F20" enable-background="new    " points="333.463,175.226 333.482,175.67 334.992,175.627 
			335.018,175.289 		"/>
		<polygon opacity="0.3" fill="#231F20" enable-background="new    " points="330.533,176.592 330.504,176.99 331.416,177.184 
			332.248,176.353 332.144,175.352 		"/>
		<polygon opacity="0.3" fill="#231F20" enable-background="new    " points="339.914,178.998 339.75,175.85 339.431,176.17 
			339.428,179.045 		"/>
		<polygon opacity="0.3" fill="#231F20" enable-background="new    " points="339.979,181.742 339.92,180.19 339.581,180.214 
			339.537,181.725 		"/>
		<polygon opacity="0.3" fill="#231F20" enable-background="new    " points="338.615,184.674 339.857,183.064 338.856,182.959 
			338.023,183.792 338.217,184.703 		"/>
	</g>
</g>
<g>
	<path fill="#D4145A" d="M143.179,323.646c-9.389,0-17,7.521-17,16.801c0,14.699,17,25.199,17,25.199s17-10.236,17-25.199
		C160.179,331.168,152.567,323.646,143.179,323.646z M143.179,347.646c-4.418,0-8-3.582-8-8s3.582-8,8-8s8,3.582,8,8
		S147.597,347.646,143.179,347.646z"/>
	<path fill="#D4145A" d="M58.179,282.646c-9.389,0-17,7.521-17,16.801c0,14.699,17,25.199,17,25.199s17-10.236,17-25.199
		C75.179,290.168,67.567,282.646,58.179,282.646z M58.179,306.646c-4.418,0-8-3.582-8-8s3.582-8,8-8s8,3.582,8,8
		S62.597,306.646,58.179,306.646z"/>
	<path fill="#D4145A" d="M242.179,389.646c-9.389,0-17,7.521-17,16.801c0,14.7,17,25.2,17,25.2s17-10.237,17-25.2
		C259.179,397.168,251.567,389.646,242.179,389.646z M242.179,413.647c-4.418,0-8-3.582-8-8c0-4.419,3.582-8,8-8s8,3.581,8,8
		C250.179,410.065,246.597,413.647,242.179,413.647z"/>
	<path fill="#D4145A" d="M808.179,91.647c-9.39,0-17,7.521-17,16.8c0,14.7,17,25.2,17,25.2s17-10.237,17-25.2
		C825.179,99.168,817.567,91.647,808.179,91.647z M808.179,115.647c-4.418,0-8-3.582-8-8s3.582-8,8-8s8,3.582,8,8
		S812.597,115.647,808.179,115.647z"/>
	<path fill="#D4145A" d="M648.975,247.896c-9.389,0-17,7.521-17,16.799c0,14.701,17,25.201,17,25.201s17-10.237,17-25.201
		C665.975,255.417,658.363,247.896,648.975,247.896z M648.975,271.896c-4.418,0-8-3.582-8-8s3.582-8,8-8s8,3.582,8,8
		S653.393,271.896,648.975,271.896z"/>
	<path fill="#D4145A" d="M741.179,294.646c-9.39,0-17,7.521-17,16.801c0,14.699,17,25.199,17,25.199s17-10.236,17-25.199
		C758.179,302.168,750.567,294.646,741.179,294.646z M741.179,318.646c-4.418,0-8-3.582-8-8s3.582-8,8-8s8,3.582,8,8
		S745.597,318.646,741.179,318.646z"/>
	<path fill="#D4145A" d="M141.179,204.114c0-9.278-7.611-16.8-17-16.8s-17,7.521-17,16.8c0,14.7,17,25.2,17,25.2
		S141.179,219.077,141.179,204.114z M124.179,211.314c-4.418,0-8-3.582-8-8s3.582-8,8-8s8,3.582,8,8
		S128.597,211.314,124.179,211.314z"/>
</g>
</svg>
