<?xml version="1.0" encoding="utf-8"?>
<!-- Generator: Adobe Illustrator 16.0.0, SVG Export Plug-In . SVG Version: 6.00 Build 0)  -->
<!DOCTYPE svg PUBLIC "-//W3C//DTD SVG 1.1//EN" "http://www.w3.org/Graphics/SVG/1.1/DTD/svg11.dtd">
<svg version="1.1" id="Layer_1" xmlns="http://www.w3.org/2000/svg" xmlns:xlink="http://www.w3.org/1999/xlink" x="0px" y="0px"
	 width="997.448px" height="451.477px" viewBox="0 0 997.448 451.477" style="enable-background:new 0 0 997.448 451.477;"
	 xml:space="preserve">
<style type="text/css">
<![CDATA[
	.st0{fill:#E9E9E9;}
	.st1{fill:#E9EAE9;}
	.st2{fill:#B52126;}
	.st3{fill:#555555;}
	.st4{fill:#999999;}
	.st5{fill:#608DA2;}
	.st6{fill:#FF7F50;}
	.st7{fill:#656263;}
	.st8{fill:#D3D2D2;}
	.st9{fill:#D4145A;}
	.st10{fill:#D9E021;}
	.st11{fill:#706D6E;}
	.st12{opacity:0.3;fill:#231F20;}
	.st13{fill:#DEDDDE;}
]]>
</style>
<g>
	<path class="st10" d="M246.386,390.513c-5.456-10.559-20.404-12.523-28.228-20.563c-10.199-10.334-4.803-26.629-11.481-37.693
		c-4.489-7.375-6.369-7.674-6.123-16.961c0.191-6.561-0.187-13.852-1.093-20.334c-2.201-16.822-10.738-30.346-21.461-43.126
		c-10.433-12.767-24.014-19.377-39.416-26.43c-6.168-2.848-8.717-8.626-13.556-12.732c-4.869-4.242-10.566-3.57-16.982-4.001
		c0.931,4.659-3.449,25.397-8.059,28.188c-5.801,3.463-10.311-7.596-16.745-5.244c-7.729,2.834-7.625,13.445-14.169,16.301
		c-14.652,6.473-9.371-10.356-8.583-16.082c1.713-11.832-9.93-8.159-15.307-12.839c-2.809-2.385-3.805-7.041-8.424-7.157
		c-4.902-0.209-8.807,2.301-13.776,0.859c-3.926-1.173-13.173-13.503-15.232-6.259c-1.143,4.063,0.269,9.953-1.916,13.747
		l0.002,0.011c7.277,10.596,17.795,19.252,19.861,32.485c1.474,9.138,3.641,31.942,11.195,37.688
		c8.786,6.598,17.382,16.914,15.054,28.734c-1.226,6.029,10.29,20.172,18.542,17.223c-13.582,7.281-0.479,7.479,2.825,12.174
		c6.808,9.723,21.451,14.248,28.686,23.727c2.316,3.051,7.482,9.604,5.314,13.787c-1.958,3.83-2.793,4.84,2.513,6.834
		c5.492,2.041,9.215,6.453,15.646,6.65c4.198,0.086,7.595-0.291,10.349,2.861c4.103,4.549,14.454,10.385,20.726,12.805
		c6.225,2.412,14.246,0.629,20.041,3.676c3.61,1.943,6.701,4.43,10.44,6.256c14.53,6.957,36.727,6.801,45.081,21.4
		c4.634-3.289,16.218-14.084,22.507-11.684c6.205,2.412,0.183-8.859-0.759-9.992c2.275,2.859,6.116,4.246,10.086,3.268
		c-9.236,8.781,15.456,13.846,7.011-3.229C264.692,412.154,252.806,403.035,246.386,390.513z"/>
	<path class="st10" d="M960.778,95.571c8.832-1.267,31.864-14.39,30.141-24.381c-1.192-6.9-15.177-8.556-19.046-1.678
		c-2.975-3.882-14.388-11.723-19.432-4.813c-1.803-6.484-13.529-15.79-21.319-9.047c-3.639,3.142-12.362,14.319-14.813,5.118
		c5.066-2.901,14.213-11.794,2.777-13.592c-6.029-0.996-7.455,4.725-11.197,7.68c-3.906,3.143-9.019,2.208-13.536,4.349
		c6.053-3.933,6.44-6.442,3.32-13.134c-2.979-6.452,4.992-6.211,4.849-11.388c-0.13-7.761-13.392-7.768-15.108-13.854
		c-0.228,15.813-21.354-14.401-21.843-14.439c-6.941,0.381-9.315,20.472-14.296,24.809c-4.326-6.929,2.702-16.003-5.072-21.768
		c-7.572,9.399-5.07,21.083-10.64,30.754c-2.546,4.363-4.175,10.346-6.609,14.203c-2.041,3.139-4.936,1.68-6.442,6.302
		c-2.646,8.071-2.791,16.505-5.787,24.584c-1.947,5.21-15.227,20.348-15.62,9.108c-3.611,6.539-16.23,19.239-1.147,21.218
		c9.988,1.275-0.739,12.181-3.792,15.405c-3.219,3.468-15.871,0.477-8.057,8.464c6.193,6.245,10.152,15.332,11.022,23.897
		c-16.151,0.186-16.462-15.579-20.769-25.979c-5.435,8.034-15.381,14.822-4.575,24.106c4.762,4.057,5.267,21.661-3.968,23.288
		c-5.228,0.921-19.438-8.333-22.389-12.088c-4.987-6.437-7.829-10.621-17.864-8.749c2.063,17.414-3.584,32.233-15.52,46.6
		c-9.311,11.293-6.76,27.507-17.651,37.954c-12.675,12.145-36.487,20.588-53.046,26.648c-10.453,3.813-33.904,23.357-14.427,31.355
		c-4.952,0.777-9.83-0.543-14.822,0.461c-0.472,4.955,4.93,8.723,1.038,13.648c3.273-0.963,6.604-1.961,9.863-2.986
		c-3.418,4.473-7.304,2.877-7.635,9.203c-0.112,2.65-0.544,5.236-1.162,7.865c-0.761,4.529,0.031,8.559,4.018,10.803
		c-5.135-1.443-8.023,3.63-5.602,8.373c4.123,8.221,13.318,0.891,19.154,5.771c-6.896,0.904-14.246,1.932-19.941-1.99
		c-6.258-4.285-9.111,0.986-15.58,0.203c-4.201-0.412-15.363-0.32-14.979-5.678c0.171-1.766-6.488-0.777-7.402-4.74
		c3.201,14.041-36.352,8.963-37.633-6.734l-0.021,0.004c0.17,6.617-7.049,11.441,2.571,13.957
		c4.725,1.219,5.271,10.621,8.037,13.834c3.003,3.602,7.322,2.416,11.17,4.439c3.934,2.131,6.121,5.908,10.105,7.967
		c3.203,1.678,10.987,7.168,13.974,7.229c9.84,0.168,11.774,8.594,22.418,1.174c7.708-5.479,13.307-11.533,23.317-13.107
		c5.78-0.91,11.111,1.91,16.393,0.014c4.533-1.518,9.069-3.123,13.646-4.43c-0.66,0.188,13.545-11.652,13.345-10.645
		c0.943-4.994,1.48-10.668,3.354-15.508c3.948-10.387,35.37-18.141,41.7-11.574c4.71,4.834,19.301,6.152,26.214,5.635
		c10.48-0.711,11.341-7.129,18.243-12.5c5.075-3.887,11.786-0.027,16.901-4.449c7.42-6.533,8.423-1.541,16.321-3.58
		c-3.437-7.885,12.839-30.186,6.45-34.377c-10.978-7.234,7.616-23.51,14.95-27.573c-4.646-3.512-17.256-23.481-3.354-26.718
		c12.829-3.031,8.559-7.041,9.261-17.759c0.432-6.677,3.065-8.073-0.444-14.344c-2.32-4.1-2.568-9.45-2.776-14
		c-0.272-5.763-0.081-13.046,1.91-18.68c1.561-4.36,5.558-6.747,5.853-11.601c4.058,0.455,10.296,5.98,12.74,0.534
		c2.18-4.842,4.051-1.623,8.019-3.521c5.332-2.596,14.687,5.335,13.517-5.246c11.882,6.757,25.643-7.162,38.377-2.873
		c4.27,1.449,12.86,6.634,17.561,2.214c2.996-2.873-0.578-8.835-0.038-12.146c14.614,6.949,20.195,2.145,35.029-2.146
		c4.656-1.347,11.489-1.835,13.619-6.799c2.014-4.599-2.498-7.801-6.701-4.122c-0.104-7.55-15.982-6.799-19.918-12.202
		C930.298,94.031,954.632,96.394,960.778,95.571z"/>
</g>
<g>
	<path class="st0" d="M316.043,187.022l-4.344-4.344l-7.148-7.15l-68.978-38.319c0,0-3.489-1.787-5.617,0.342
		c-1.272,1.271-0.473,4.434,0.464,6.861l0.9-0.9l42.062,36.615l-4.427,4.427c13.164,13.164,24.779,24.778,24.779,24.778
		L316.043,187.022z"/>
	<path class="st6" d="M231.32,143.512l-0.9,0.9c0.389,1.004,0.797,1.881,1.103,2.452l5.244,5.5
		c6.945,6.947,20.206,20.207,32.188,32.189l4.427-4.427L231.32,143.512z"/>
	<path class="st6" d="M317.597,186.79c0,0-1.342-0.51-2.012,0.159c-0.671,0.671-11.815,8.173-22.419,17.755
		c0,0-2.712,2.009-1.37,3.351c0,0,1.087,3.004-0.797,4.887c-1.885,1.885,6.067-1.662,6.067-1.662L317.597,186.79z"/>
	<path class="st0" d="M328.185,199.162l4.345,4.346l7.151,7.151l38.317,68.975c0,0,1.786,3.487-0.342,5.617
		c-1.272,1.271-4.433,0.475-6.859-0.461l0.9-0.901l-36.615-42.063l-4.427,4.428c-13.164-13.164-24.78-24.78-24.78-24.78
		L328.185,199.162z"/>
	<path class="st6" d="M371.697,283.889l-0.9,0.901c-1.006-0.393-1.889-0.805-2.451-1.104l-5.503-5.245
		c-6.947-6.948-20.206-20.207-32.188-32.188l4.427-4.428L371.697,283.889z"/>
	<path class="st6" d="M328.417,197.61c0,0,0.512,1.345-0.156,2.013c-0.671,0.671-8.177,11.813-17.758,22.417
		c0,0-2.012,2.71-3.351,1.37c0,0-3.001-1.084-4.884,0.8c-1.885,1.885,1.659-6.07,1.659-6.07L328.417,197.61z"/>
	<path class="st0" d="M346.921,174.159c1.215-3.806,0.865-5.177,0.48-5.665l0,0l0,0c-0.052-0.063-0.104-0.115-0.152-0.151
		l-0.384-0.384c-0.038-0.048-0.089-0.1-0.152-0.152l0,0l0,0c-0.489-0.386-1.858-0.735-5.667,0.476
		c-5.811,1.854-21.136,15.265-21.136,15.265s-23.501,23.5-31.486,31.486c-7.981,7.981-15.006,15.006-19.926,22.991
		c-4.917,7.979-18.412,23.52-21.223,27.012c-2.806,3.492-1.83,4.725-1.83,4.725s1.237,0.98,4.727-1.828
		c3.49-2.813,19.032-16.307,27.012-21.223c7.984-4.92,15.01-11.943,22.99-19.925c7.986-7.985,31.486-31.486,31.486-31.486
		S345.071,179.973,346.921,174.159z"/>
	<path class="st0" d="M236.076,242.429c0,0-3.068-0.861-5.8,1.567c3.771,3.771,16.431,16.431,17.083,17.081
		c0.767,0.768,0.086,1.448,0.086,1.448l-2.231,2.231c0.468,0.215,0.96,0.541,1.464,1.043c0.949,0.949,1.27,1.271,1.363,1.363
		l12.048-16.477L236.076,242.429z"/>
	<path class="st6" d="M247.359,261.078c-0.652-0.65-13.313-13.311-17.083-17.081c-0.093,0.08-0.188,0.171-0.282,0.258
		c-0.015,0.017-0.029,0.03-0.029,0.03c-2.829,2.829-1.722,6.998-0.868,7.852c0.85,0.852,11.579,11.579,11.579,11.579
		s0.464,0.335,1.029,0.538c0.242,0.082,0.504,0.145,0.759,0.146c0.607-0.002,1.598-0.17,2.751,0.357l2.231-2.231
		C247.445,262.526,248.126,261.845,247.359,261.078z"/>
	<path class="st0" d="M272.777,279.132c0,0,0.862,3.066-1.565,5.799c-3.772-3.771-16.431-16.43-17.083-17.082
		c-0.767-0.767-1.448-0.086-1.448-0.086l-2.23,2.229c-0.217-0.47-0.54-0.96-1.048-1.468c-0.945-0.945-1.267-1.268-1.361-1.361
		l16.479-12.047L272.777,279.132z"/>
	<path class="st6" d="M254.129,267.849c0.652,0.652,13.311,13.311,17.083,17.082c-0.08,0.094-0.171,0.189-0.261,0.281
		c-0.015,0.016-0.029,0.031-0.029,0.031c-2.829,2.828-7.001,1.717-7.85,0.868c-0.853-0.854-11.579-11.579-11.579-11.579
		s-0.335-0.463-0.54-1.031c-0.083-0.242-0.146-0.506-0.146-0.76c0.003-0.605,0.168-1.596-0.356-2.749l2.23-2.229
		C252.681,267.763,253.362,267.083,254.129,267.849z"/>
	<g>
		<path class="st6" d="M284.277,230.166c-0.727,0.638-27.975,27.46-27.975,27.46l-8.282,8.921c0,0-0.401,0.615-0.188,0.828
			l37.807-37.808C285.639,229.567,284.998,229.525,284.277,230.166z"/>
		<path class="st6" d="M285.042,230.931c0.64-0.721,0.598-1.364,0.598-1.364l-37.807,37.808c0.214,0.215,0.83-0.188,0.83-0.188
			l8.917-8.285C257.579,258.902,284.404,231.659,285.042,230.931z"/>
	</g>
	<path class="st4" d="M319.713,174.229c0,0,1.446-1.275-0.171-2.894c-1.617-1.616-1.831-1.83-1.831-1.83s-0.211-0.212-1.831-1.833
		c-1.619-1.618-2.896-0.171-2.896-0.171s-0.39,0.332-2.533,2.302l6.962,6.962C319.381,174.621,319.713,174.229,319.713,174.229z"/>
	<path class="st4" d="M310.705,184c2.317-2.485,4.041-4.348,5.33-5.741l-7.081-7.079c-1.393,1.287-3.253,3.014-5.74,5.33
		c-8.667,8.067-7.003,14.495-7.003,14.495S302.638,192.666,310.705,184z"/>
	<path class="st3" d="M317.205,176.557l-6.547-6.548c-0.427,0.391-0.918,0.849-1.492,1.384l6.654,6.654
		C316.356,177.473,316.812,176.979,317.205,176.557z"/>
	<path class="st13" d="M312.465,173.345c0,0-3.292,3.161-2.524,3.929l3.449-3.45C313.39,173.824,313.134,173.631,312.465,173.345z"
		/>
	<path class="st11" d="M313.866,174.746c0,0-3.16,3.293-3.925,2.528l3.449-3.45C313.39,173.824,313.582,174.079,313.866,174.746z"/>
	<path class="st3" d="M319.976,167.896c-0.122-0.123-0.203-0.203-0.266-0.266c0,0-0.001-0.002-0.008-0.009
		c-0.013-0.012-0.045-0.045-0.107-0.105c-0.007-0.007-0.009-0.009-0.009-0.009c-0.062-0.062-0.146-0.146-0.268-0.269
		c-0.489-0.488-1.203,0.076-1.203,0.076l-1.298,1.299l0.839,0.839l0.107,0.107l0.839,0.838l1.298-1.298
		C319.901,169.099,320.467,168.385,319.976,167.896z"/>
	<path class="st4" d="M347.331,202.599c0,0,1.446-1.279-0.17-2.896c-1.62-1.62-1.833-1.833-1.833-1.833s-0.214-0.214-1.83-1.83
		c-1.619-1.619-2.895-0.17-2.895-0.17s-0.393,0.329-2.535,2.298l6.961,6.962C346.998,202.988,347.331,202.599,347.331,202.599z"/>
	<path class="st4" d="M338.324,212.368c2.315-2.486,4.043-4.347,5.33-5.744l-7.08-7.079c-1.394,1.29-3.256,3.016-5.74,5.332
		c-8.666,8.066-7.007,14.496-7.007,14.496S330.259,221.032,338.324,212.368z"/>
	<path class="st3" d="M344.793,204.894l-6.491-6.491c-0.421,0.392-0.917,0.853-1.488,1.382l6.601,6.599
		C343.944,205.813,344.404,205.318,344.793,204.894z"/>
	<path class="st13" d="M340.079,201.714c0,0-3.287,3.163-2.522,3.929l3.45-3.45C341.006,202.192,340.752,202.003,340.079,201.714z"
		/>
	<path class="st11" d="M341.485,203.12c0,0-3.161,3.29-3.928,2.522l3.45-3.45C341.006,202.192,341.2,202.451,341.485,203.12z"/>
	<path class="st7" d="M347.594,196.26c-0.12-0.119-0.206-0.205-0.263-0.262c0,0-0.003-0.002-0.011-0.01
		c-0.012-0.014-0.043-0.043-0.11-0.11c-0.002-0.002-0.004-0.004-0.009-0.009c-0.059-0.06-0.142-0.143-0.262-0.263
		c-0.492-0.491-1.203,0.075-1.203,0.075l-1.299,1.299l0.835,0.835l0.109,0.109l0.841,0.841l1.298-1.299
		C347.52,197.466,348.085,196.752,347.594,196.26z"/>
	
		<ellipse transform="matrix(0.7071 0.7071 -0.7071 0.7071 212.1284 -176.9517)" class="st1" cx="319.647" cy="167.566" rx="9.573" ry="0.418"/>
	<path class="st1" d="M354.116,202.625c-0.165,0.164-3.33-2.732-7.07-6.473c-3.736-3.737-6.633-6.901-6.468-7.065
		c0.163-0.163,3.326,2.735,7.062,6.472C351.379,199.299,354.277,202.461,354.116,202.625z"/>
	<path class="st2" d="M320.528,166.944c-0.048-0.049-0.08-0.082-0.104-0.105c0,0,0,0-0.001-0.001
		c-0.005-0.005-0.02-0.019-0.043-0.043l-0.005-0.005c-0.022-0.024-0.055-0.056-0.1-0.1c-0.19-0.191-0.468,0.027-0.468,0.027
		l-0.505,0.505l0.326,0.326l0.042,0.041l0.324,0.324l0.504-0.504C320.498,167.408,320.715,167.131,320.528,166.944z"/>
	<path class="st2" d="M348.143,195.309c-0.045-0.044-0.08-0.079-0.1-0.099c0,0,0,0-0.007-0.006
		c-0.005-0.005-0.017-0.018-0.042-0.042l-0.002-0.003c-0.025-0.025-0.055-0.055-0.104-0.104c-0.188-0.188-0.466,0.029-0.466,0.029
		l-0.503,0.502l0.326,0.326l0.041,0.041l0.326,0.325l0.503-0.503C348.114,195.775,348.334,195.5,348.143,195.309z"/>
	<path class="st6" d="M346.206,175.849c0.31-0.623,0.556-1.189,0.715-1.689c1.215-3.806,0.865-5.177,0.48-5.665
		c-0.052-0.063-0.104-0.115-0.152-0.151l-0.384-0.384c-0.038-0.048-0.089-0.1-0.152-0.152l0,0c-0.489-0.386-1.858-0.735-5.667,0.476
		c-0.496,0.162-1.065,0.406-1.686,0.719L346.206,175.849z"/>
	<path class="st8" d="M247.637,265.398c2.894-3.408,16.647-18.69,21.949-26.289c5.305-7.599,12.328-14.622,20.311-22.604
		c7.983-7.984,31.484-31.485,31.484-31.485s15.082-13.656,20.402-15.999c3.483-1.537,4.638-1.403,5.018-1.129
		c0.009,0.009,0.02,0.02,0.031,0.027c-0.035-0.038-0.071-0.075-0.118-0.114l0,0c-0.491-0.384-1.859-0.732-5.669,0.479
		c-5.811,1.854-21.136,15.265-21.136,15.265s-23.501,23.5-31.484,31.484c-7.983,7.983-15.006,15.006-19.926,22.99
		c-4.918,7.981-18.413,23.521-21.224,27.014c-2.807,3.491-1.83,4.725-1.83,4.725S244.743,268.802,247.637,265.398z"/>
	<path class="st8" d="M346.921,174.159c1.215-3.806,0.865-5.177,0.481-5.666c-0.041-0.047-0.081-0.088-0.114-0.118
		c0.005,0.009,0.017,0.021,0.025,0.029c0.277,0.384,0.409,1.536-1.127,5.021c-2.35,5.315-15.998,20.404-15.998,20.404
		s-23.502,23.501-31.485,31.484c-7.982,7.983-15.005,15.006-22.606,20.309c-7.601,5.298-22.884,19.051-26.292,21.947
		c-3.405,2.895-4.363,2.191-4.363,2.191s1.237,0.98,4.727-1.828c3.49-2.813,19.032-16.307,27.015-21.225
		c7.984-4.92,15.007-11.941,22.99-19.926c7.983-7.982,31.483-31.483,31.483-31.483S345.071,179.973,346.921,174.159z"/>
	<polygon class="st5" points="339.996,174.818 339.038,175.777 336.161,175.778 336.272,174.63 	"/>
	<polygon class="st5" points="335.657,174.65 335.589,175.609 333.482,175.67 333.439,174.564 	"/>
	<polygon class="st5" points="332.78,174.714 332.887,175.714 331.417,177.184 330.504,176.99 330.545,176.438 	"/>
	<polygon class="st5" points="340.389,175.211 339.431,176.17 339.428,179.045 340.579,178.936 	"/>
	<polygon class="st5" points="340.559,179.552 339.598,179.618 339.538,181.725 340.643,181.768 	"/>
	<polygon class="st5" points="340.493,182.427 339.495,182.32 338.023,183.792 338.217,184.703 338.769,184.662 	"/>
	<g>
		<polygon class="st12" points="336.161,175.778 339.038,175.777 339.357,175.457 336.212,175.295 		"/>
		<polygon class="st12" points="333.463,175.226 333.482,175.67 334.993,175.627 335.018,175.289 		"/>
		<polygon class="st12" points="330.534,176.592 330.504,176.99 331.417,177.184 332.249,176.353 332.144,175.352 		"/>
		<polygon class="st12" points="339.915,178.998 339.75,175.85 339.431,176.17 339.428,179.045 		"/>
		<polygon class="st12" points="339.979,181.742 339.92,180.19 339.582,180.214 339.538,181.725 		"/>
		<polygon class="st12" points="338.615,184.674 339.857,183.064 338.856,182.959 338.023,183.792 338.217,184.703 		"/>
	</g>
</g>
<g>
	<path class="st9" d="M143.179,323.647c-9.389,0-17,7.521-17,16.8c0,14.7,17,25.2,17,25.2s17-10.237,17-25.2
		C160.179,331.168,152.567,323.647,143.179,323.647z M143.179,347.647c-4.418,0-8-3.582-8-8s3.582-8,8-8s8,3.582,8,8
		S147.597,347.647,143.179,347.647z"/>
	<path class="st9" d="M58.179,282.647c-9.389,0-17,7.521-17,16.8c0,14.7,17,25.2,17,25.2s17-10.237,17-25.2
		C75.179,290.168,67.567,282.647,58.179,282.647z M58.179,306.647c-4.418,0-8-3.582-8-8s3.582-8,8-8s8,3.582,8,8
		S62.597,306.647,58.179,306.647z"/>
	<path class="st9" d="M242.179,389.647c-9.389,0-17,7.521-17,16.8c0,14.7,17,25.2,17,25.2s17-10.237,17-25.2
		C259.179,397.168,251.567,389.647,242.179,389.647z M242.179,413.647c-4.418,0-8-3.582-8-8s3.582-8,8-8s8,3.582,8,8
		S246.597,413.647,242.179,413.647z"/>
	<path class="st9" d="M808.179,91.647c-9.389,0-17,7.521-17,16.8c0,14.7,17,25.2,17,25.2s17-10.237,17-25.2
		C825.179,99.168,817.567,91.647,808.179,91.647z M808.179,115.647c-4.418,0-8-3.582-8-8s3.582-8,8-8s8,3.582,8,8
		S812.597,115.647,808.179,115.647z"/>
	<path class="st9" d="M648.975,247.896c-9.389,0-17,7.521-17,16.8c0,14.7,17,25.2,17,25.2s17-10.237,17-25.2
		C665.975,255.417,658.363,247.896,648.975,247.896z M648.975,271.896c-4.418,0-8-3.582-8-8s3.582-8,8-8s8,3.582,8,8
		S653.393,271.896,648.975,271.896z"/>
	<path class="st9" d="M741.179,294.647c-9.389,0-17,7.521-17,16.8c0,14.7,17,25.2,17,25.2s17-10.237,17-25.2
		C758.179,302.168,750.567,294.647,741.179,294.647z M741.179,318.647c-4.418,0-8-3.582-8-8s3.582-8,8-8s8,3.582,8,8
		S745.597,318.647,741.179,318.647z"/>
	<path class="st9" d="M141.179,204.114c0-9.278-7.611-16.8-17-16.8s-17,7.521-17,16.8c0,14.7,17,25.2,17,25.2
		S141.179,219.077,141.179,204.114z M124.179,211.314c-4.418,0-8-3.582-8-8s3.582-8,8-8s8,3.582,8,8
		S128.597,211.314,124.179,211.314z"/>
</g>
</svg>
