<?xml version="1.0" encoding="utf-8"?>
<!-- Generator: Adobe Illustrator 16.0.0, SVG Export Plug-In . SVG Version: 6.00 Build 0)  -->
<!DOCTYPE svg PUBLIC "-//W3C//DTD SVG 1.1//EN" "http://www.w3.org/Graphics/SVG/1.1/DTD/svg11.dtd">
<svg version="1.1" id="Layer_1" xmlns="http://www.w3.org/2000/svg" xmlns:xlink="http://www.w3.org/1999/xlink" x="0px" y="0px"
	 width="589.742px" height="118.115px" viewBox="0 0 589.742 118.115" style="enable-background:new 0 0 589.742 118.115;"
	 xml:space="preserve">
<g>
	<path class="st348" d="M103.066,101.286c-11.652,11.487-26.699,16.829-43.041,16.829C17.957,118.115,0.16,89.152,0,59.706
		C-0.16,30.094,19.094,0,60.025,0c15.373,0,29.936,5.825,41.584,17.313L87.371,31.065c-7.443-7.277-17.475-10.678-27.346-10.678
		c-27.34,0-39.154,20.383-38.992,39.318c0.162,18.768,11.002,38.346,38.992,38.346c9.871,0,21.035-4.048,28.479-11.487
		L103.066,101.286z"/>
	<path class="st348" d="M223.109,35.759l1.457,9.223c6.148-9.873,14.4-11.329,22.49-11.329c8.25,0,16.184,3.237,20.551,7.606
		l-8.904,17.149c-4.039-3.396-7.766-5.174-14.238-5.174c-10.352,0-19.898,5.5-19.898,20.221v42.068h-19.74V35.759H223.109z"/>
	<path class="st348" d="M338.309,35.759h18.932v79.765h-18.609l-0.969-11.65c-4.533,9.384-16.99,13.916-25.887,14.079
		c-23.627,0.163-41.1-14.4-41.1-42.391c0-27.506,18.283-41.909,41.584-41.746c10.678,0,20.869,5.019,25.402,12.948L338.309,35.759z
		 M290.416,75.562c0,15.21,10.52,24.269,23.621,24.269c31.064,0,31.064-48.378,0-48.378
		C300.936,51.452,290.416,60.353,290.416,75.562z"/>
	<path class="st348" d="M393.477,2.428v113.096h-19.578V2.428H393.477z"/>
	<path class="st348" d="M489.422,115.686V77.839h-55.66v37.847h-21.355V2.428h21.355v55.67h55.66V2.428h21.195v113.258H489.422z"/>
	<path class="st348" d="M589.742,115.712H564.34l-33.006-37.863h-20.549v37.822l-21.363,0.015l0.004-113.258
		c17.961,0,35.922,0.025,53.881,0.025c26.697,0.159,40.77,17.96,40.77,37.538c0,15.531-7.119,31.227-28.637,35.597l34.303,38.667
		V115.712z M510.785,22.354v36.244h32.521c13.59,0,19.414-9.063,19.414-18.123c0-9.059-5.982-18.121-19.414-18.121H510.785z"/>
	<path class="st348" d="M189.172,62.873c-3.453-10.709-10.871-19.435-20.885-24.566c-6.014-3.082-12.467-4.643-19.178-4.643
		c-15.902,0-30.281,8.783-37.525,22.925c-10.596,20.673-2.396,46.11,18.279,56.704c6.014,3.082,12.467,4.645,19.178,4.645
		c15.902,0,30.281-8.784,37.527-22.925C191.701,84.997,192.625,73.584,189.172,62.873z M176.916,71.518
		c0.652-2.769-0.207-4.999-2.988-4.896c-2.34,0.082-3.777,3.72-4.227,6.167c-0.443,2.451-2.166,6.552-5.633,5.522
		c-8-2.375-6.063-10.538-5.781-12.057c0.277-1.521,4.121-10.795,2.506-13.071c-1.613-2.276-4.027-0.718-4.541,1.291
		c-0.207,0.819-1.125,4.034-1.49,5.399c-1.646-1.438-3.723-3.381-4.969-3.357c-1.82,0.026-3.17,2.538-1.502,4.386
		c1.342,1.493,2.502,2.363,4.17,4.614c-0.709,3-1.393,5.294-4.369,7.546c-4.914,3.61-8.959,6.589-9.428,6.718
		c-2.846,0.78,4.389-16.895,2.594-19.106c-1.793-2.21-4.082-2.898-5.703-0.631c-1.367,1.903-9.832,13.768-8.959,11.965
		c1.084-2.25-0.916-4.275-2.672-3.796c-1.201,0.33-3.281,3.332-4.463,5.178c-0.605-1.005-1.143-1.909-1.551-2.61
		c0.586-16.721,14.318-30.097,31.18-30.097c17.137,0,31.041,13.816,31.199,30.917C178.336,72.531,176.646,72.661,176.916,71.518z"/>
	<path class="st348" d="M158.525,95.369c-0.047,0.1-0.09,0.206-0.129,0.308c-0.02-0.078-0.045-0.157-0.063-0.239
		C158.4,95.416,158.457,95.391,158.525,95.369z"/>
</g>
</svg>
