<?xml version="1.0" encoding="utf-8"?>
<!-- Generator: Adobe Illustrator 16.0.0, SVG Export Plug-In . SVG Version: 6.00 Build 0)  -->
<!DOCTYPE svg PUBLIC "-//W3C//DTD SVG 1.1//EN" "http://www.w3.org/Graphics/SVG/1.1/DTD/svg11.dtd">
<svg version="1.1" id="Layer_1" xmlns="http://www.w3.org/2000/svg" xmlns:xlink="http://www.w3.org/1999/xlink" x="0px" y="0px"
	 width="228.313px" height="228.323px" viewBox="0 0 228.313 228.323" style="enable-background:new 0 0 228.313 228.323;"
	 xml:space="preserve">

<path class="st348" d="M222.791,79.144c-9.355-29.018-29.455-52.657-56.586-66.562C149.91,4.231,132.428,0,114.244,0
	C71.158,0,32.199,23.799,12.57,62.114c-28.707,56.014-6.492,124.934,49.527,153.638c16.293,8.35,33.779,12.582,51.961,12.582
	c43.088,0,82.045-23.801,101.678-62.114C229.645,139.086,232.148,108.163,222.791,79.144z M189.584,102.564
	c1.768-7.501-0.561-13.544-8.096-13.266c-6.342,0.224-10.236,10.08-11.453,16.711c-1.199,6.642-5.869,17.752-15.26,14.963
	c-21.678-6.435-16.43-28.552-15.668-32.666c0.752-4.124,11.166-29.248,6.789-35.416c-4.369-6.169-10.91-1.944-12.301,3.499
	c-0.561,2.22-3.051,10.93-4.039,14.627c-4.461-3.896-10.086-9.159-13.463-9.095c-4.934,0.071-8.59,6.877-4.07,11.884
	c3.637,4.046,6.783,6.403,11.299,12.501c-1.92,8.127-3.77,14.345-11.834,20.446c-13.316,9.779-24.275,17.854-25.545,18.203
	c-7.711,2.112,11.891-45.775,7.027-51.77c-4.857-5.989-11.059-7.853-15.451-1.709c-3.705,5.154-26.641,37.304-24.273,32.418
	c2.936-6.096-2.482-11.585-7.242-10.284c-3.254,0.894-8.889,9.027-12.09,14.028c-1.641-2.722-3.098-5.173-4.203-7.071
	c1.588-45.303,38.793-81.547,84.477-81.547c46.432,0,84.107,37.435,84.533,83.769C193.43,105.31,188.855,105.665,189.584,102.564z"
	/>
</svg>
