<?xml version="1.0" encoding="utf-8"?>
<!-- Generator: Adobe Illustrator 16.0.0, SVG Export Plug-In . SVG Version: 6.00 Build 0)  -->
<!DOCTYPE svg PUBLIC "-//W3C//DTD SVG 1.1//EN" "http://www.w3.org/Graphics/SVG/1.1/DTD/svg11.dtd">
<svg version="1.1" id="Layer_1" xmlns="http://www.w3.org/2000/svg" xmlns:xlink="http://www.w3.org/1999/xlink" x="0px" y="0px"
	 width="231.25px" height="231.25px" viewBox="0 0 231.25 231.25" style="enable-background:new 0 0 231.25 231.25;"
	 xml:space="preserve">
 
<path class="st214" d="M224.354,80.727c-9.355-29.018-29.455-52.658-56.586-66.563C151.473,5.814,133.99,1.583,115.807,1.583
	c-43.086,0-82.045,23.8-101.674,62.115c-28.707,56.014-6.492,124.934,49.527,153.638c16.293,8.35,33.779,12.582,51.961,12.582
	c43.088,0,82.045-23.8,101.678-62.114C231.207,140.669,233.711,109.746,224.354,80.727z M191.146,104.148
	c1.768-7.501-0.561-13.544-8.096-13.266c-6.342,0.224-10.236,10.08-11.453,16.71c-1.199,6.642-5.869,17.752-15.26,14.963
	c-21.678-6.435-16.43-28.552-15.668-32.666c0.752-4.124,11.166-29.248,6.789-35.416c-4.369-6.169-10.91-1.944-12.301,3.5
	c-0.561,2.219-3.051,10.929-4.039,14.626c-4.461-3.896-10.086-9.159-13.463-9.095c-4.934,0.072-8.59,6.877-4.07,11.884
	c3.637,4.046,6.783,6.403,11.299,12.5c-1.92,8.127-3.77,14.345-11.834,20.446c-13.316,9.779-24.275,17.854-25.545,18.204
	c-7.711,2.112,11.891-45.776,7.027-51.77c-4.857-5.989-11.059-7.853-15.451-1.709c-3.705,5.154-26.641,37.304-24.273,32.418
	c2.936-6.096-2.482-11.585-7.242-10.284c-3.254,0.894-8.889,9.027-12.09,14.029c-1.641-2.722-3.098-5.173-4.203-7.071
	c1.588-45.303,38.793-81.547,84.477-81.547c46.432,0,84.107,37.435,84.533,83.768C194.992,106.893,190.418,107.248,191.146,104.148z
	"/>
</svg>
