<?xml version="1.0" encoding="utf-8"?>
<!-- Generator: Adobe Illustrator 16.0.0, SVG Export Plug-In . SVG Version: 6.00 Build 0)  -->
<!DOCTYPE svg PUBLIC "-//W3C//DTD SVG 1.1//EN" "http://www.w3.org/Graphics/SVG/1.1/DTD/svg11.dtd">
<svg version="1.1" id="Layer_1" xmlns="http://www.w3.org/2000/svg" xmlns:xlink="http://www.w3.org/1999/xlink" x="0px" y="0px"
	 width="809px" height="551.396px" viewBox="0 0 809 551.396" style="enable-background:new 0 0 809 551.396;" xml:space="preserve"
	>
<style type="text/css">
<![CDATA[
	.st0{fill:#E6E7E8;}
	.st1{fill:#58595B;}
	.st2{fill:#262626;}
	.st3{fill:#929497;}
	.st4{fill:#FF7F50;}
	.st5{fill:#FFB700;}
	.st6{fill:#FFFFFF;}
	.st7{fill:none;stroke:#00AEEF;stroke-width:2.4254;stroke-miterlimit:10;}
	.st8{fill:none;stroke:#404041;stroke-width:2.9913;stroke-miterlimit:10;}
	.st9{fill:#404041;}
]]>
</style>
<g>
	<g>
		<g>
			<path class="st2" d="M769.553,528.306c20.894,0,37.988-17.095,37.988-37.988V39.5c0-20.894-17.095-37.988-37.988-37.988H65.511
				c-20.893,0-37.988,17.095-37.988,37.988v450.818c0,20.894,17.095,37.988,37.988,37.988H769.553z"/>
			<path class="st8" d="M769.553,528.306c20.894,0,37.988-17.095,37.988-37.988V39.5c0-20.894-17.095-37.988-37.988-37.988H65.511
				c-20.893,0-37.988,17.095-37.988,37.988v450.818c0,20.894,17.095,37.988,37.988,37.988H769.553z"/>
		</g>
		<rect x="103.779" y="27.365" class="st5" width="627.508" height="475.069"/>
		<g>
			<path class="st6" d="M329.922,242.18c-6.068-18.827-19.109-34.163-36.711-43.185c-10.574-5.415-21.913-8.163-33.709-8.163
				c-27.952,0-53.228,15.44-65.96,40.299c-18.624,36.339-4.213,81.054,32.128,99.673c10.574,5.414,21.917,8.162,33.713,8.162
				c27.951,0,53.225-15.439,65.959-40.297C334.366,281.064,335.993,261.003,329.922,242.18z M308.381,257.375
				c1.145-4.869-0.368-8.789-5.254-8.609c-4.113,0.145-6.644,6.542-7.431,10.84c-0.779,4.309-3.806,11.518-9.902,9.709
				c-14.063-4.174-10.655-18.522-10.162-21.192c0.489-2.676,7.246-18.974,4.406-22.977c-2.835-4.002-7.079-1.26-7.981,2.269
				c-0.362,1.442-1.978,7.093-2.623,9.491c-2.889-2.53-6.54-5.942-8.728-5.9c-3.203,0.046-5.579,4.459-2.643,7.71
				c2.359,2.626,4.398,4.154,7.329,8.108c-1.246,5.274-2.446,9.307-7.679,13.264c-8.64,6.346-15.747,11.584-16.571,11.813
				c-5.001,1.369,7.715-29.698,4.558-33.586c-3.148-3.885-7.172-5.094-10.024-1.109c-2.403,3.343-17.282,24.2-15.743,21.029
				c1.903-3.952-1.613-7.515-4.7-6.669c-2.114,0.577-5.767,5.854-7.846,9.1c-1.061-1.766-2.009-3.356-2.726-4.588
				c1.03-29.389,25.167-52.904,54.804-52.904c30.126,0,54.564,24.289,54.842,54.347
				C310.872,259.155,307.904,259.384,308.381,257.375z"/>
			<g>
				<path class="st6" d="M374.146,312.816v6.65h-1.859v-15.992h4.386c1.96,0,3.41,0.377,4.346,1.129
					c0.937,0.75,1.405,1.879,1.405,3.391c0,2.113-1.071,3.543-3.215,4.287l4.343,7.186h-2.199l-3.872-6.65H374.146z
					 M374.146,311.218h2.548c1.313,0,2.276-0.26,2.889-0.781c0.612-0.521,0.918-1.303,0.918-2.346c0-1.057-0.312-1.818-0.934-2.287
					c-0.625-0.467-1.625-0.699-3.002-0.699h-2.418V311.218z"/>
				<path class="st6" d="M390.923,319.685c-1.77,0-3.169-0.539-4.192-1.617c-1.026-1.08-1.538-2.58-1.538-4.498
					c0-1.93,0.477-3.467,1.428-4.604c0.953-1.139,2.229-1.707,3.833-1.707c1.502,0,2.69,0.494,3.565,1.484
					c0.875,0.986,1.314,2.289,1.314,3.908v1.148h-8.26c0.038,1.408,0.393,2.477,1.067,3.205c0.676,0.729,1.626,1.094,2.85,1.094
					c1.291,0,2.566-0.27,3.828-0.809v1.619c-0.641,0.275-1.249,0.475-1.821,0.596C392.425,319.625,391.733,319.685,390.923,319.685z
					 M390.432,308.781c-0.962,0-1.728,0.314-2.303,0.939c-0.571,0.629-0.908,1.494-1.012,2.604h6.269
					c0-1.145-0.255-2.021-0.765-2.631C392.11,309.085,391.381,308.781,390.432,308.781z"/>
				<path class="st6" d="M397.42,314.292v-1.662h5.371v1.662H397.42z"/>
				<path class="st6" d="M410.698,319.685c-1.77,0-3.169-0.539-4.192-1.617c-1.026-1.08-1.539-2.58-1.539-4.498
					c0-1.93,0.478-3.467,1.429-4.604c0.953-1.139,2.229-1.707,3.833-1.707c1.502,0,2.69,0.494,3.565,1.484
					c0.875,0.986,1.312,2.289,1.312,3.908v1.148h-8.258c0.038,1.408,0.393,2.477,1.068,3.205c0.675,0.729,1.625,1.094,2.849,1.094
					c1.291,0,2.566-0.27,3.828-0.809v1.619c-0.642,0.275-1.25,0.475-1.822,0.596C412.201,319.625,411.508,319.685,410.698,319.685z
					 M410.208,308.781c-0.963,0-1.729,0.314-2.304,0.939c-0.571,0.629-0.908,1.494-1.012,2.604h6.269
					c0-1.145-0.255-2.021-0.766-2.631C411.886,309.085,411.156,308.781,410.208,308.781z"/>
				<path class="st6" d="M426.406,319.466v-7.754c0-0.979-0.222-1.707-0.666-2.189c-0.445-0.479-1.142-0.721-2.09-0.721
					c-1.252,0-2.172,0.34-2.755,1.018s-0.875,1.797-0.875,3.355v6.291h-1.816v-11.988h1.477l0.295,1.641h0.088
					c0.372-0.59,0.893-1.049,1.563-1.371c0.67-0.324,1.418-0.488,2.242-0.488c1.445,0,2.531,0.35,3.26,1.045
					c0.729,0.697,1.094,1.811,1.094,3.342v7.82H426.406z"/>
				<path class="st6" d="M441.764,307.478v1.148l-2.222,0.264c0.205,0.254,0.388,0.588,0.549,1c0.16,0.412,0.239,0.877,0.239,1.395
					c0,1.174-0.4,2.111-1.204,2.811c-0.801,0.701-1.901,1.051-3.301,1.051c-0.357,0-0.695-0.027-1.005-0.088
					c-0.773,0.41-1.163,0.924-1.163,1.541c0,0.33,0.137,0.572,0.407,0.729c0.269,0.156,0.732,0.234,1.388,0.234h2.124
					c1.296,0,2.295,0.275,2.991,0.822c0.696,0.545,1.044,1.34,1.044,2.383c0,1.328-0.532,2.34-1.596,3.035
					c-1.067,0.697-2.617,1.045-4.66,1.045c-1.568,0-2.777-0.291-3.626-0.875c-0.85-0.582-1.275-1.406-1.275-2.471
					c0-0.73,0.234-1.361,0.701-1.893c0.465-0.531,1.123-0.895,1.968-1.082c-0.306-0.141-0.564-0.354-0.771-0.646
					c-0.208-0.291-0.311-0.631-0.311-1.018c0-0.438,0.115-0.818,0.35-1.148c0.232-0.328,0.602-0.645,1.105-0.951
					c-0.621-0.256-1.125-0.689-1.515-1.301c-0.389-0.613-0.585-1.314-0.585-2.102c0-1.313,0.393-2.324,1.181-3.035
					c0.787-0.711,1.904-1.066,3.348-1.066c0.625,0,1.192,0.074,1.694,0.219H441.764z M432.204,321.478
					c0,0.65,0.273,1.143,0.822,1.479c0.546,0.334,1.329,0.502,2.351,0.502c1.523,0,2.652-0.229,3.383-0.684
					c0.735-0.457,1.101-1.074,1.101-1.855c0-0.646-0.2-1.098-0.601-1.35c-0.402-0.252-1.156-0.377-2.265-0.377h-2.175
					c-0.825,0-1.468,0.197-1.927,0.592C432.433,320.177,432.204,320.742,432.204,321.478z M433.188,311.318
					c0,0.838,0.238,1.473,0.711,1.902c0.473,0.432,1.134,0.646,1.979,0.646c1.772,0,2.658-0.859,2.658-2.582
					c0-1.801-0.895-2.701-2.69-2.701c-0.854,0-1.51,0.23-1.969,0.689C433.418,309.732,433.188,310.414,433.188,311.318z"/>
				<path class="st6" d="M444.069,304.23c0-0.414,0.102-0.719,0.307-0.914c0.203-0.193,0.46-0.289,0.768-0.289
					c0.291,0,0.542,0.098,0.753,0.297c0.211,0.195,0.318,0.498,0.318,0.906s-0.106,0.713-0.318,0.912
					c-0.211,0.201-0.462,0.303-0.753,0.303c-0.308,0-0.564-0.102-0.768-0.303C444.171,304.943,444.069,304.638,444.069,304.23z
					 M446.04,319.466h-1.818v-11.988h1.818V319.466z"/>
				<path class="st6" d="M458.092,319.466v-7.754c0-0.979-0.222-1.707-0.666-2.189c-0.444-0.479-1.142-0.721-2.091-0.721
					c-1.253,0-2.17,0.34-2.755,1.018s-0.876,1.797-0.876,3.355v6.291h-1.816v-11.988h1.478l0.295,1.641h0.087
					c0.372-0.59,0.893-1.049,1.563-1.371c0.671-0.324,1.419-0.488,2.243-0.488c1.445,0,2.531,0.35,3.259,1.045
					c0.73,0.697,1.096,1.811,1.096,3.342v7.82H458.092z"/>
				<path class="st6" d="M468.702,319.685c-1.771,0-3.17-0.539-4.193-1.617c-1.026-1.08-1.538-2.58-1.538-4.498
					c0-1.93,0.477-3.467,1.428-4.604c0.953-1.139,2.229-1.707,3.834-1.707c1.502,0,2.689,0.494,3.565,1.484
					c0.875,0.986,1.312,2.289,1.312,3.908v1.148h-8.259c0.039,1.408,0.394,2.477,1.068,3.205c0.675,0.729,1.624,1.094,2.849,1.094
					c1.29,0,2.567-0.27,3.828-0.809v1.619c-0.641,0.275-1.249,0.475-1.821,0.596C470.203,319.625,469.511,319.685,468.702,319.685z
					 M468.21,308.781c-0.963,0-1.729,0.314-2.303,0.939c-0.572,0.629-0.911,1.494-1.013,2.604h6.269
					c0-1.145-0.254-2.021-0.765-2.631C469.888,309.085,469.159,308.781,468.21,308.781z"/>
				<path class="st6" d="M481.271,319.685c-1.771,0-3.17-0.539-4.194-1.617c-1.024-1.08-1.537-2.58-1.537-4.498
					c0-1.93,0.476-3.467,1.429-4.604c0.952-1.139,2.228-1.707,3.834-1.707c1.503,0,2.689,0.494,3.564,1.484
					c0.875,0.986,1.313,2.289,1.313,3.908v1.148h-8.259c0.039,1.408,0.392,2.477,1.069,3.205c0.675,0.729,1.623,1.094,2.85,1.094
					c1.289,0,2.566-0.27,3.825-0.809v1.619c-0.64,0.275-1.248,0.475-1.82,0.596C482.772,319.625,482.079,319.685,481.271,319.685z
					 M480.777,308.781c-0.96,0-1.727,0.314-2.301,0.939c-0.573,0.629-0.91,1.494-1.012,2.604h6.268c0-1.145-0.255-2.021-0.766-2.631
					C482.456,309.085,481.726,308.781,480.777,308.781z"/>
				<path class="st6" d="M494.244,307.259c0.529,0,1.01,0.045,1.431,0.131l-0.249,1.686c-0.499-0.109-0.937-0.164-1.316-0.164
					c-0.969,0-1.797,0.393-2.487,1.182c-0.687,0.787-1.032,1.77-1.032,2.941v6.432h-1.817v-11.988h1.501l0.206,2.221h0.088
					c0.445-0.779,0.981-1.381,1.608-1.805C492.802,307.472,493.49,307.259,494.244,307.259z"/>
				<path class="st6" d="M497.764,304.23c0-0.414,0.103-0.719,0.307-0.914c0.204-0.193,0.46-0.289,0.767-0.289
					c0.292,0,0.542,0.098,0.754,0.297c0.213,0.195,0.319,0.498,0.319,0.906s-0.106,0.713-0.319,0.912
					c-0.212,0.201-0.462,0.303-0.754,0.303c-0.307,0-0.563-0.102-0.767-0.303C497.866,304.943,497.764,304.638,497.764,304.23z
					 M499.734,319.466h-1.817v-11.988h1.817V319.466z"/>
				<path class="st6" d="M511.787,319.466v-7.754c0-0.979-0.224-1.707-0.669-2.189c-0.443-0.479-1.141-0.721-2.089-0.721
					c-1.253,0-2.17,0.34-2.755,1.018s-0.875,1.797-0.875,3.355v6.291h-1.816v-11.988h1.476l0.296,1.641h0.086
					c0.374-0.59,0.896-1.049,1.565-1.371c0.673-0.324,1.419-0.488,2.242-0.488c1.445,0,2.532,0.35,3.26,1.045
					c0.73,0.697,1.094,1.811,1.094,3.342v7.82H511.787z"/>
				<path class="st6" d="M527.145,307.478v1.148l-2.222,0.264c0.204,0.254,0.386,0.588,0.545,1c0.162,0.412,0.244,0.877,0.244,1.395
					c0,1.174-0.403,2.111-1.206,2.811c-0.802,0.701-1.903,1.051-3.303,1.051c-0.356,0-0.693-0.027-1.006-0.088
					c-0.772,0.41-1.159,0.924-1.159,1.541c0,0.33,0.135,0.572,0.405,0.729c0.268,0.156,0.733,0.234,1.388,0.234h2.121
					c1.298,0,2.295,0.275,2.992,0.822c0.697,0.545,1.047,1.34,1.047,2.383c0,1.328-0.534,2.34-1.599,3.035
					c-1.064,0.697-2.618,1.045-4.658,1.045c-1.569,0-2.777-0.291-3.628-0.875c-0.85-0.582-1.272-1.406-1.272-2.471
					c0-0.73,0.232-1.361,0.7-1.893c0.465-0.531,1.122-0.895,1.967-1.082c-0.305-0.141-0.563-0.354-0.771-0.646
					c-0.207-0.291-0.311-0.631-0.311-1.018c0-0.438,0.116-0.818,0.35-1.148c0.232-0.328,0.603-0.645,1.105-0.951
					c-0.621-0.256-1.126-0.689-1.515-1.301c-0.391-0.613-0.587-1.314-0.587-2.102c0-1.313,0.395-2.324,1.182-3.035
					s1.905-1.066,3.348-1.066c0.626,0,1.191,0.074,1.694,0.219H527.145z M517.583,321.478c0,0.65,0.273,1.143,0.821,1.479
					c0.546,0.334,1.331,0.502,2.351,0.502c1.522,0,2.653-0.229,3.385-0.684c0.733-0.457,1.102-1.074,1.102-1.855
					c0-0.646-0.204-1.098-0.603-1.35c-0.4-0.252-1.157-0.377-2.263-0.377h-2.179c-0.824,0-1.466,0.197-1.926,0.592
					C517.812,320.177,517.583,320.742,517.583,321.478z M518.568,311.318c0,0.838,0.237,1.473,0.709,1.902
					c0.475,0.432,1.137,0.646,1.98,0.646c1.772,0,2.659-0.859,2.659-2.582c0-1.801-0.897-2.701-2.691-2.701
					c-0.854,0-1.509,0.23-1.969,0.689S518.568,310.414,518.568,311.318z"/>
				<path class="st6" d="M547.838,319.466h-1.859v-7.525h-8.423v7.525h-1.858v-15.992h1.858v6.805h8.423v-6.805h1.859V319.466z"/>
				<path class="st6" d="M554.082,312.816v6.65h-1.857v-15.992h4.386c1.96,0,3.411,0.377,4.348,1.129
					c0.936,0.75,1.404,1.879,1.404,3.391c0,2.113-1.071,3.543-3.216,4.287l4.344,7.186h-2.199l-3.871-6.65H554.082z
					 M554.082,311.218h2.549c1.314,0,2.276-0.26,2.89-0.781c0.611-0.521,0.918-1.303,0.918-2.346c0-1.057-0.313-1.818-0.934-2.287
					c-0.624-0.467-1.627-0.699-3.005-0.699h-2.418V311.218z"/>
				<path class="st6" d="M577.196,319.685c-0.781,0-1.494-0.145-2.14-0.432c-0.646-0.287-1.186-0.73-1.625-1.33h-0.129
					c0.086,0.701,0.129,1.363,0.129,1.992v4.932h-1.815v-17.369h1.476l0.254,1.641h0.086c0.468-0.656,1.012-1.129,1.629-1.422
					c0.621-0.291,1.332-0.438,2.136-0.438c1.588,0,2.814,0.543,3.679,1.631c0.862,1.086,1.296,2.609,1.296,4.572
					c0,1.969-0.439,3.496-1.316,4.588C579.976,319.14,578.756,319.685,577.196,319.685z M576.933,308.802
					c-1.225,0-2.113,0.34-2.659,1.018s-0.826,1.756-0.842,3.236v0.406c0,1.684,0.282,2.889,0.842,3.613
					c0.562,0.729,1.461,1.09,2.702,1.09c1.036,0,1.848-0.42,2.434-1.258c0.587-0.838,0.881-1.994,0.881-3.469
					c0-1.494-0.294-2.641-0.881-3.439C578.823,309.201,577.997,308.802,576.933,308.802z"/>
				<path class="st6" d="M590.813,307.259c0.531,0,1.01,0.045,1.433,0.131l-0.252,1.686c-0.496-0.109-0.934-0.164-1.312-0.164
					c-0.971,0-1.799,0.393-2.487,1.182c-0.689,0.787-1.036,1.77-1.036,2.941v6.432h-1.815v-11.988h1.5l0.207,2.221h0.086
					c0.445-0.779,0.982-1.381,1.61-1.805C589.371,307.472,590.061,307.259,590.813,307.259z"/>
				<path class="st6" d="M604.835,313.462c0,1.953-0.49,3.479-1.478,4.576c-0.983,1.098-2.345,1.646-4.077,1.646
					c-1.073,0-2.025-0.252-2.857-0.756c-0.83-0.502-1.472-1.225-1.924-2.164c-0.453-0.939-0.679-2.041-0.679-3.303
					c0-1.955,0.487-3.479,1.466-4.566c0.977-1.092,2.332-1.637,4.067-1.637c1.68,0,3.011,0.559,4,1.674
					C604.341,310.048,604.835,311.558,604.835,313.462z M595.701,313.462c0,1.531,0.307,2.697,0.92,3.498
					c0.611,0.805,1.513,1.205,2.702,1.205c1.188,0,2.091-0.4,2.708-1.197c0.615-0.801,0.924-1.969,0.924-3.506
					c0-1.525-0.309-2.682-0.924-3.475c-0.617-0.789-1.527-1.186-2.73-1.186c-1.19,0-2.085,0.391-2.692,1.17
					C596.006,310.751,595.701,311.916,595.701,313.462z"/>
				<path class="st6" d="M612.809,319.685c-1.735,0-3.078-0.533-4.031-1.604c-0.952-1.066-1.429-2.578-1.429-4.533
					c0-2.006,0.484-3.555,1.449-4.648c0.967-1.094,2.343-1.641,4.131-1.641c0.576,0,1.152,0.063,1.728,0.186
					c0.576,0.125,1.027,0.27,1.354,0.439l-0.558,1.541c-0.4-0.16-0.836-0.293-1.311-0.398c-0.474-0.105-0.893-0.158-1.259-0.158
					c-2.437,0-3.652,1.553-3.652,4.658c0,1.473,0.296,2.604,0.891,3.391c0.596,0.787,1.477,1.182,2.641,1.182
					c1,0,2.026-0.215,3.074-0.645v1.607C615.036,319.478,614.026,319.685,612.809,319.685z"/>
				<path class="st6" d="M623.747,319.685c-1.772,0-3.172-0.539-4.194-1.617c-1.026-1.08-1.537-2.58-1.537-4.498
					c0-1.93,0.475-3.467,1.427-4.604c0.952-1.139,2.229-1.707,3.834-1.707c1.503,0,2.69,0.494,3.564,1.484
					c0.875,0.986,1.314,2.289,1.314,3.908v1.148h-8.259c0.036,1.408,0.39,2.477,1.066,3.205c0.675,0.729,1.625,1.094,2.85,1.094
					c1.291,0,2.566-0.27,3.828-0.809v1.619c-0.642,0.275-1.249,0.475-1.821,0.596C625.247,319.625,624.554,319.685,623.747,319.685z
					 M623.254,308.781c-0.962,0-1.729,0.314-2.303,0.939c-0.572,0.629-0.91,1.494-1.012,2.604h6.269
					c0-1.145-0.256-2.021-0.765-2.631C624.933,309.085,624.202,308.781,623.254,308.781z"/>
				<path class="st6" d="M638.981,316.197c0,1.113-0.415,1.977-1.246,2.58c-0.83,0.605-1.999,0.908-3.499,0.908
					c-1.591,0-2.831-0.252-3.721-0.756v-1.684c0.577,0.293,1.194,0.521,1.854,0.689c0.66,0.166,1.298,0.252,1.909,0.252
					c0.946,0,1.676-0.152,2.187-0.455s0.765-0.762,0.765-1.383c0-0.467-0.2-0.865-0.605-1.197c-0.404-0.332-1.195-0.725-2.368-1.176
					c-1.116-0.416-1.907-0.779-2.38-1.09c-0.47-0.309-0.819-0.662-1.048-1.055c-0.231-0.395-0.348-0.863-0.348-1.41
					c0-0.977,0.398-1.748,1.195-2.314c0.793-0.564,1.885-0.848,3.269-0.848c1.292,0,2.555,0.264,3.787,0.787l-0.647,1.477
					c-1.204-0.494-2.294-0.742-3.271-0.742c-0.86,0-1.511,0.135-1.946,0.404c-0.439,0.27-0.655,0.641-0.655,1.115
					c0,0.32,0.079,0.596,0.245,0.82c0.165,0.227,0.429,0.441,0.793,0.645c0.365,0.205,1.064,0.5,2.101,0.887
					c1.421,0.518,2.382,1.039,2.88,1.564C638.734,314.742,638.981,315.402,638.981,316.197z"/>
				<path class="st6" d="M649.667,316.197c0,1.113-0.415,1.977-1.245,2.58c-0.831,0.605-1.998,0.908-3.501,0.908
					c-1.588,0-2.828-0.252-3.72-0.756v-1.684c0.576,0.293,1.196,0.521,1.854,0.689c0.66,0.166,1.298,0.252,1.911,0.252
					c0.946,0,1.676-0.152,2.188-0.455c0.509-0.303,0.764-0.762,0.764-1.383c0-0.467-0.202-0.865-0.606-1.197
					c-0.405-0.332-1.193-0.725-2.369-1.176c-1.113-0.416-1.906-0.779-2.379-1.09c-0.468-0.309-0.819-0.662-1.049-1.055
					c-0.229-0.395-0.345-0.863-0.345-1.41c0-0.977,0.398-1.748,1.193-2.314c0.795-0.564,1.885-0.848,3.268-0.848
					c1.292,0,2.556,0.264,3.788,0.787l-0.646,1.477c-1.203-0.494-2.293-0.742-3.27-0.742c-0.86,0-1.511,0.135-1.948,0.404
					s-0.656,0.641-0.656,1.115c0,0.32,0.082,0.596,0.248,0.82c0.161,0.227,0.427,0.441,0.791,0.645
					c0.365,0.205,1.064,0.5,2.101,0.887c1.421,0.518,2.381,1.039,2.882,1.564S649.667,315.402,649.667,316.197z"/>
			</g>
			<g>
				<path class="st6" d="M409.977,283.664c-5.191,5.188-12.091,7.785-18.913,7.785c-17.5,0-26.625-12.238-26.698-26.252
					c-0.151-13.87,8.899-26.847,26.698-26.847c6.822,0,13.722,2.596,18.913,7.788l-2.745,2.374c-4.45-4.447-10.309-6.6-16.168-6.6
					c-15.13,0-22.917,10.679-22.843,23.138c0.148,12.162,7.861,22.693,22.843,22.693c5.859,0,11.792-2.225,16.24-6.598
					L409.977,283.664z"/>
				<path class="st6" d="M416.203,272.615c0-11.645,8.309-19.062,18.62-19.062c10.304,0,18.615,7.417,18.615,19.062
					c0,11.639-8.311,18.76-18.615,18.76C424.512,291.375,416.203,284.253,416.203,272.615z M449.875,272.615
					c0-9.496-6.751-15.652-15.052-15.652c-8.307,0-15.058,6.156-15.058,15.652c0,9.49,6.751,15.201,15.058,15.201
					C443.124,287.816,449.875,282.105,449.875,272.615z"/>
				<path class="st6" d="M465.227,254.222l0.148,6.524c2.3-4.97,7.492-6.896,12.158-6.896c2.75-0.073,5.418,0.666,7.861,2.152
					l-1.627,2.965c-1.93-1.188-4.081-1.704-6.234-1.704c-6.819,0.071-12.084,5.559-12.084,12.237v21.355h-3.634v-36.633H465.227z"/>
				<path class="st6" d="M526.114,254.222c0,12.237,0,24.399,0,36.633h-3.636v-7.787c-3.555,5.711-9.049,8.381-14.979,8.381
					c-10.238,0-18.615-7.711-18.615-18.908c0-11.201,8.377-18.764,18.615-18.764c5.931,0,11.939,2.744,14.979,8.452v-8.006H526.114z
					 M492.521,272.541c0,9.195,6.673,15.35,14.978,15.35c20.397,0,20.397-30.627,0-30.627
					C499.194,257.263,492.521,263.341,492.521,272.541z"/>
				<path class="st6" d="M539.613,238.944v51.911h-3.636v-51.911H539.613z"/>
				<path class="st6" d="M584.701,290.929v-20.988h-25.516v20.988h-9.786v-51.914h9.786v21.879h25.516v-21.879h9.714v51.914H584.701
					z"/>
				<path class="st6" d="M649.667,290.855h-11.64l-15.131-17.354h-9.422v17.354h-9.79V238.87c8.232,0,16.467,0.074,24.697,0.074
					c12.237,0.071,18.689,8.232,18.689,17.205c0,7.118-3.262,14.313-13.126,16.315l15.722,17.725V290.855z M613.475,248.063v16.614
					h14.907c6.23,0,8.903-4.156,8.903-8.307c0-4.151-2.747-8.307-8.903-8.307H613.475z"/>
			</g>
		</g>
		<path class="st3" d="M768.084,270.109c3.044,0,5.506-2.334,5.506-5.186c0-2.881-2.462-5.222-5.506-5.222
			c-3.08,0-5.519,2.341-5.519,5.222C762.565,267.775,765.004,270.109,768.084,270.109z"/>
		<path class="st9" d="M63.447,284.884c11.047,0,19.961-8.947,19.961-19.961c0-11.061-8.914-20.002-19.961-20.002
			c-11.06,0-20.01,8.941-20.01,20.002C43.438,275.937,52.388,284.884,63.447,284.884z"/>
	</g>
	<g>
		<g>
			<path class="st6" d="M28.74,550.213c-15.125,0-27.501-12.375-27.501-27.501V209.474c0-15.125,12.375-27.501,27.501-27.501
				h120.443c15.125,0,27.501,12.375,27.501,27.501v313.238c0,15.126-12.375,27.501-27.501,27.501H28.74z"/>
			<path class="st7" d="M28.74,550.213c-15.125,0-27.501-12.375-27.501-27.501V209.474c0-15.125,12.375-27.501,27.501-27.501
				h120.443c15.125,0,27.501,12.375,27.501,27.501v313.238c0,15.126-12.375,27.501-27.501,27.501H28.74z"/>
		</g>
		<rect x="13.929" y="234.043" class="st4" width="150.06" height="265.943"/>
		<path class="st0" d="M88.949,540.295c7.543,0,13.65-6.115,13.65-13.652c0-7.523-6.107-13.623-13.65-13.623
			s-13.627,6.1-13.627,13.623C75.322,534.18,81.406,540.295,88.949,540.295z"/>
		<path class="st1" d="M88.949,203.672c1.882,0,3.437-1.516,3.437-3.404s-1.555-3.418-3.437-3.418c-1.868,0-3.39,1.529-3.39,3.418
			S87.082,203.672,88.949,203.672z"/>
		<rect x="116.437" y="179.817" class="st7" width="28.034" height="1.689"/>
		<path class="st1" d="M101.093,216.692c1.506,0,2.687-1.106,2.687-2.481l0,0c0-1.378-1.181-2.476-2.687-2.476H76.85
			c-1.486,0-2.698,1.098-2.698,2.476l0,0c0,1.375,1.211,2.481,2.698,2.481H101.093z"/>
	</g>
	<path class="st6" d="M140.33,348.448c-4.425-13.725-13.932-24.905-26.765-31.482c-7.708-3.949-15.977-5.951-24.577-5.951
		c-20.379,0-38.806,11.256-48.091,29.379c-13.578,26.494-3.07,59.094,23.427,72.67c7.706,3.949,15.977,5.951,24.576,5.951
		c20.38,0,38.806-11.258,48.093-29.379C143.571,376.799,144.756,362.174,140.33,348.448z M124.623,359.526
		c0.837-3.547-0.264-6.406-3.829-6.273c-3,0.105-4.841,4.768-5.417,7.902c-0.566,3.141-2.776,8.396-7.218,7.078
		c-10.253-3.043-7.771-13.504-7.412-15.449c0.357-1.95,5.283-13.834,3.212-16.752c-2.066-2.918-5.16-0.92-5.818,1.654
		c-0.265,1.051-1.443,5.17-1.91,6.918c-2.11-1.844-4.771-4.332-6.367-4.301c-2.334,0.033-4.063,3.252-1.926,5.621
		c1.72,1.914,3.208,3.027,5.344,5.912c-0.908,3.844-1.782,6.785-5.597,9.67c-6.299,4.627-11.482,8.445-12.083,8.611
		c-3.647,0.998,5.624-21.652,3.324-24.486c-2.298-2.832-5.231-3.714-7.309-0.809c-1.752,2.438-12.601,17.645-11.481,15.334
		c1.389-2.885-1.174-5.48-3.425-4.864c-1.539,0.423-4.204,4.269-5.719,6.634c-0.776-1.287-1.466-2.447-1.987-3.343
		c0.75-21.429,18.349-38.571,39.956-38.571c21.962,0,39.782,17.707,39.982,39.621C126.441,360.825,124.279,360.993,124.623,359.526z
		"/>
</g>
</svg>
